ply
format ascii 1.0
comment Created by Blender 2.80 (sub 75) - www.blender.org, source file: 'scene.blend'
element vertex 507
property float x
property float y
property float z
property uchar red
property uchar green
property uchar blue
property uchar alpha
element face 968
property list uchar uint vertex_indices
end_header
-2.222113 0.688161 0.396114 255 199 184 255
-2.239995 0.714953 0.317989 255 223 211 255
-2.145383 0.682421 0.247676 255 123 87 255
-2.109619 0.628836 0.396114 255 102 49 255
-2.482218 1.623984 0.247676 255 111 68 255
-2.534725 1.538821 0.317989 255 214 201 255
-2.537895 1.570877 0.396114 255 210 196 255
-2.488558 1.688095 0.396114 255 105 56 255
-2.026610 0.675126 0.208614 255 95 31 255
-1.985583 0.606829 0.396114 255 95 31 255
-2.395023 1.704961 0.208614 255 95 31 255
-2.406626 1.783784 0.396114 255 95 31 255
-2.224806 0.811658 0.185176 255 158 134 255
-2.129178 0.845868 0.130489 255 96 34 255
-2.366015 1.507905 0.130489 255 95 31 255
-2.461643 1.473695 0.185176 255 123 87 255
-2.283653 0.790606 0.286739 255 234 224 255
-2.520490 1.452643 0.286739 255 223 211 255
-2.324680 0.858902 0.317989 255 233 223 255
-2.296872 0.943527 0.247676 255 161 138 255
-2.433712 1.326037 0.247676 255 133 101 255
-2.508887 1.373820 0.317989 255 225 213 255
-2.224390 1.019241 0.208614 255 97 37 255
-2.329651 1.313479 0.208614 255 95 31 255
-2.317924 1.002374 0.396114 255 128 95 255
-2.258061 1.090169 0.396114 255 95 31 255
-2.310691 1.237288 0.396114 255 95 31 255
-2.412659 1.267189 0.396114 255 131 99 255
-2.335207 0.888326 0.396114 255 222 210 255
-2.498361 1.344396 0.396114 255 225 213 255
-2.324680 0.858902 0.482051 255 195 179 255
-2.296872 0.943527 0.544551 255 108 61 255
-2.433712 1.326037 0.544551 255 129 96 255
-2.508887 1.373820 0.482051 255 221 209 255
-2.224390 1.019241 0.591426 255 95 31 255
-2.329651 1.313479 0.591426 255 95 31 255
-2.224806 0.811658 0.607051 255 99 42 255
-2.129178 0.845868 0.669551 255 95 31 255
-2.366015 1.507905 0.669551 255 95 31 255
-2.461643 1.473695 0.607051 255 119 81 255
-2.283653 0.790606 0.513301 255 177 157 255
-2.520490 1.452643 0.513301 255 216 203 255
-2.239995 0.714953 0.482051 255 174 154 255
-2.145383 0.682421 0.544551 255 97 37 255
-2.482218 1.623984 0.544551 255 110 65 255
-2.534725 1.538821 0.482051 255 209 195 255
-2.026610 0.675126 0.591426 255 95 31 255
-2.395023 1.704961 0.591426 255 95 31 255
-2.252075 0.702334 0.489864 255 166 145 255
-2.234193 0.675542 0.396114 255 198 183 255
-2.552068 1.540914 0.489864 255 206 191 255
-2.555239 1.572970 0.396114 255 209 195 255
-2.305721 0.782711 0.528926 255 164 141 255
-2.542558 1.444748 0.528926 255 211 197 255
-2.349380 0.858364 0.489864 255 187 169 255
-2.528323 1.358569 0.489864 255 218 205 255
-2.362537 0.895144 0.396114 255 216 203 255
-2.515166 1.321790 0.396114 255 220 208 255
-2.349380 0.858364 0.310176 255 232 221 255
-2.528323 1.358569 0.310176 255 223 211 255
-2.305721 0.782711 0.271114 255 233 223 255
-2.542558 1.444748 0.271114 255 219 206 255
-2.252075 0.702334 0.310176 255 221 209 255
-2.552068 1.540914 0.310176 255 212 198 255
-2.327789 0.774817 0.396114 255 236 226 255
-2.564626 1.436854 0.396114 255 238 228 255
-2.128224 1.028751 -0.814824 255 95 31 255
-2.207047 1.017148 -0.775761 255 95 31 255
-2.269664 1.168992 -0.791386 255 95 31 255
-2.210817 1.190044 -0.830449 255 95 31 255
-2.317570 1.326098 -0.775761 255 95 31 255
-2.249274 1.367126 -0.814824 255 95 31 255
-2.048801 0.899514 -0.791386 255 95 31 255
-2.183363 0.950944 -0.760136 255 95 31 255
-2.341254 1.392302 -0.760136 250 93 31 255
-2.269849 1.517415 -0.791386 255 95 31 255
-2.042999 0.860102 -0.736699 255 95 31 255
-2.202260 0.910994 -0.666386 167 51 28 255
-2.381204 1.411200 -0.666386 138 33 27 255
-2.290362 1.551563 -0.736699 239 87 30 255
-2.085042 0.861657 -0.541386 251 94 31 255
-2.229591 0.917812 -0.549199 138 33 27 255
-2.398009 1.388593 -0.549199 139 33 27 255
-2.321879 1.523694 -0.541386 247 92 31 255
-2.098200 0.898437 -0.283574 255 95 31 255
-2.264817 0.946697 -0.291386 255 95 31 255
-2.406919 1.343919 -0.291386 255 95 31 255
-2.308722 1.486914 -0.283574 255 95 31 255
-2.127685 1.004052 -0.033574 255 95 31 255
-2.019316 0.793899 0.013301 255 95 31 255
-2.164881 0.783311 0.107051 255 97 37 255
-2.389391 0.993403 0.052364 255 95 31 255
-2.433296 1.533620 0.107051 255 95 31 255
-2.314046 1.617767 0.013301 255 95 31 255
-2.264524 1.386562 -0.033574 255 95 31 255
-2.473600 1.228794 0.052364 255 95 31 255
-1.960884 0.607368 0.114864 255 95 31 255
-2.047062 0.593133 0.208614 255 95 31 255
-2.462843 1.755376 0.208614 255 95 31 255
-2.387190 1.799035 0.114864 255 95 31 255
-1.806824 0.455047 0.302364 255 95 31 255
-1.988153 0.498044 0.357051 255 95 31 255
-2.477616 1.866254 0.357051 255 95 31 255
-2.364707 2.014512 0.302364 255 95 31 255
-1.936061 0.375624 0.583614 255 95 31 255
-2.034382 0.464912 0.528926 4 2 0 255
-2.534371 1.862545 0.528926 110 42 13 255
-2.514996 1.993937 0.583614 150 56 18 255
-2.015484 0.504862 0.638301 255 95 31 255
-2.119006 0.492720 0.567989 0 0 0 255
-2.582154 1.787370 0.567989 135 50 17 255
-2.494421 1.843648 0.638301 13 5 2 255
-2.148014 0.689777 0.755489 255 95 31 255
-2.269418 0.704427 0.700801 1 0 0 255
-2.564149 1.528295 0.700801 66 25 8 255
-2.479586 1.616628 0.755489 40 15 6 255
-2.250044 0.835819 0.911739 255 95 31 255
-2.348303 0.808965 0.794551 0 0 0 255
-2.558824 1.397442 0.794551 0 0 0 255
-2.465828 1.439008 0.911739 255 95 31 255
-2.327374 0.982399 0.872676 255 95 31 255
-2.399856 0.906685 0.771114 101 39 12 255
-2.536695 1.289196 0.771114 1 0 0 255
-2.432634 1.276638 0.872676 223 83 27 255
-2.351596 1.073303 0.646114 184 69 22 255
-2.426710 1.004944 0.583614 0 0 0 255
-2.495129 1.196200 0.583614 238 87 29 255
-2.393700 1.190998 0.646114 1 0 0 255
-2.365292 1.134782 0.583614 0 0 0 255
-2.438852 1.108467 0.505489 198 74 25 255
-2.339454 0.969780 0.567989 187 71 27 255
-2.295795 0.894128 0.622676 206 78 28 255
-2.464212 1.364910 0.622676 255 109 63 255
-2.449978 1.278731 0.567989 255 109 63 255
-2.254768 0.825831 0.630489 241 91 32 255
-2.475816 1.443732 0.630489 255 112 69 255
-2.198490 0.738098 0.591426 243 94 40 255
-2.487958 1.547255 0.591426 255 119 80 255
-2.089105 0.594688 0.528926 227 84 28 255
-2.494359 1.727506 0.528926 254 95 31 255
-2.061235 0.563171 0.450801 254 95 31 255
-2.492805 1.769549 0.450801 255 95 31 255
-2.066499 0.577883 0.341426 255 95 31 255
-2.487542 1.754837 0.341426 255 95 31 255
-2.133302 0.695040 0.216426 255 111 68 255
-2.464874 1.621891 0.216426 255 102 49 255
-2.202199 0.794853 0.169551 255 134 103 255
-2.454825 1.501026 0.169551 255 110 65 255
-2.296872 0.943527 0.247676 255 161 138 255
-2.433712 1.326037 0.247676 255 133 101 255
-2.317386 0.977675 0.294551 255 149 123 255
-2.350580 1.140045 0.200801 255 95 31 255
-2.427910 1.286626 0.294551 255 133 101 255
-2.345255 1.009192 0.458614 255 110 65 255
-2.429464 1.244583 0.458614 255 119 81 255
-2.387360 1.126887 0.364864 255 95 31 255
-2.335268 1.004467 0.364864 255 130 97 255
-2.424740 1.254570 0.364864 255 128 95 255
-2.300104 1.091723 -0.728886 209 74 29 255
-2.313800 1.153202 -0.736699 244 91 31 255
-2.342208 1.209419 -0.728886 240 88 31 255
-2.296395 1.034968 -0.682011 147 40 28 255
-2.375341 1.255647 -0.682011 143 36 27 255
-2.321095 1.034430 -0.564824 138 33 27 255
-2.394777 1.240397 -0.564824 138 33 27 255
-2.346333 1.058591 -0.291386 255 95 31 255
-2.318463 1.027074 -0.533574 138 33 27 255
-2.397409 1.247753 -0.533574 138 33 27 255
-2.398963 1.205710 -0.291386 255 95 31 255
-2.336345 1.053866 -0.135136 255 95 31 255
-2.365292 1.134782 -0.174199 255 95 31 255
-2.372648 1.132150 -0.291386 255 95 31 255
-2.394239 1.215697 -0.135136 255 93 31 255
-2.357936 1.137413 -0.525761 139 34 27 255
-2.357936 1.137413 -0.611699 138 33 27 255
-2.330544 1.014455 -0.072636 255 95 31 255
-2.372048 0.991310 -0.072636 255 95 31 255
-2.370493 1.033353 -0.119511 255 94 31 255
-2.433650 1.209896 -0.119511 255 54 22 255
-2.461519 1.241413 -0.072636 255 40 20 255
-2.414752 1.249846 -0.072636 255 83 28 255
-2.331082 1.039154 0.005489 255 94 31 255
-2.365231 1.018641 0.021114 255 94 31 255
-2.438913 1.224608 0.021114 255 91 30 255
-2.399502 1.230409 0.005489 255 93 31 255
-2.365292 1.134782 0.013301 255 32 18 255
-2.388914 1.084844 0.028926 255 58 23 255
-2.415229 1.158404 0.028926 255 61 23 255
-2.372648 1.132150 -0.041386 255 2 16 255
-2.416784 1.116361 -0.033574 255 0 16 255
-2.402072 1.121624 -0.166386 255 95 31 255
-2.397825 1.040170 -0.096074 255 73 26 255
-2.424140 1.113730 -0.135136 255 58 23 255
-2.450455 1.187289 -0.096074 255 4 16 255
-2.446208 1.105835 -0.049199 255 0 16 255
-2.415706 1.066962 0.005489 255 19 17 255
-2.447285 1.155234 0.005489 255 14 17 255
-2.399917 1.022826 -0.002324 255 79 27 255
-2.463074 1.199370 -0.002324 255 41 20 255
-2.409366 1.002851 -0.072636 255 89 29 255
-2.483049 1.208819 -0.072636 255 4 16 255
-2.280606 0.990833 -0.088261 255 95 31 255
-2.391130 1.299783 -0.088261 255 95 31 255
-2.275343 0.976121 -0.158574 255 95 31 255
-2.396393 1.314495 -0.158574 255 95 31 255
-2.101908 0.955191 -0.158574 255 95 31 255
-2.275589 1.440685 -0.158574 255 95 31 255
-2.109803 0.977259 -0.096074 255 95 31 255
-2.267694 1.418617 -0.096074 255 95 31 255
-2.343224 1.142676 -0.619511 138 33 27 255
-2.319002 1.051773 -0.588261 138 33 27 255
-2.382158 1.228316 -0.588261 138 33 27 255
-2.304290 1.057036 -0.666386 139 34 27 255
-2.367446 1.233580 -0.666386 140 34 27 255
-2.298011 1.109067 -0.713261 171 54 28 255
-2.329589 1.197338 -0.713261 215 76 29 255
-2.313800 1.153202 -0.721074 226 81 30 255
-2.246519 1.127487 -0.697636 140 34 27 255
-2.262308 1.171623 -0.705449 176 56 28 255
-2.278098 1.215759 -0.697636 163 49 28 255
-2.238086 1.080720 -0.658574 138 33 27 255
-2.301243 1.257263 -0.658574 138 33 27 255
-2.260154 1.072825 -0.596074 139 34 27 255
-2.323310 1.249369 -0.596074 138 33 27 255
-2.284376 1.163728 -0.627324 139 33 27 255
-2.331559 0.947712 0.310176 255 185 167 255
-2.344178 0.959793 0.372676 255 172 152 255
-2.457872 1.300799 0.310176 255 165 143 255
-2.459965 1.283455 0.372676 255 171 151 255
-2.341547 0.952437 0.450801 255 150 124 255
-2.462597 1.290811 0.450801 255 170 150 255
-2.331021 0.923013 0.528926 255 123 87 255
-2.473123 1.320235 0.528926 255 155 130 255
-2.325758 0.908301 0.263301 255 202 187 255
-2.478386 1.334947 0.263301 255 170 150 255
-2.238979 0.781695 0.216426 255 195 179 255
-2.491605 1.487868 0.216426 255 154 129 255
-2.182701 0.693962 0.255489 255 157 133 255
-2.503747 1.591390 0.255489 255 136 105 255
-2.111712 0.611492 0.349239 255 100 44 255
-2.501177 1.700176 0.349239 255 101 46 255
-2.116436 0.601505 0.442989 255 96 34 255
-2.511164 1.704900 0.442989 255 100 44 255
-2.131687 0.620941 0.505489 254 96 34 255
-2.510626 1.680201 0.505489 255 102 49 255
-2.252614 0.727033 0.552364 255 125 89 255
-2.536818 1.521478 0.552364 255 169 148 255
-2.266849 0.813212 0.583614 255 112 69 255
-2.493159 1.445825 0.583614 255 149 123 255
-2.302613 0.866797 0.575801 255 113 70 255
-2.486819 1.381715 0.575801 255 148 122 255
-2.301058 0.908840 0.513301 255 139 109 255
-2.292625 0.862072 0.552364 255 128 94 255
-2.458950 1.350198 0.513301 255 175 155 255
-2.482095 1.391702 0.552364 255 170 149 255
-2.259492 0.815844 0.560176 255 125 89 255
-2.485803 1.448457 0.560176 255 168 147 255
-2.233177 0.742284 0.544551 255 127 93 255
-2.512119 1.522017 0.544551 255 170 149 255
-2.127501 0.655628 0.489864 255 100 44 255
-2.485388 1.656040 0.489864 255 110 66 255
-2.112250 0.636192 0.435176 255 100 44 255
-2.485926 1.680739 0.435176 255 107 60 255
-2.114882 0.643548 0.364864 255 108 61 255
-2.483295 1.673383 0.364864 255 110 66 255
-2.173252 0.713937 0.271114 255 165 143 255
-2.483772 1.581941 0.271114 255 144 116 255
-2.224267 0.786958 0.239864 255 204 189 255
-2.476893 1.493131 0.239864 255 168 146 255
-2.298427 0.901484 0.278926 255 211 197 255
-2.461581 1.357554 0.278926 255 184 166 255
-2.304228 0.940895 0.325801 255 193 177 255
-2.441067 1.323405 0.325801 255 177 158 255
-2.314216 0.945620 0.450801 255 157 133 255
-2.445792 1.313418 0.450801 255 177 158 255
-2.306860 0.948251 0.380489 255 184 165 255
-2.438436 1.316049 0.380489 255 184 165 255
-2.203399 1.076534 0.614864 255 95 31 255
-2.232884 1.182149 0.560176 255 95 31 255
-2.277082 1.282501 0.614864 255 95 31 255
-2.181808 0.992987 0.817989 255 95 31 255
-2.313385 1.360785 0.817989 255 95 31 255
-2.112373 0.868474 0.841426 255 95 31 255
-2.338684 1.501087 0.841426 255 95 31 255
-2.025594 0.741868 0.708614 255 95 31 255
-2.351903 1.654008 0.708614 255 95 31 255
-1.900959 0.579021 0.607051 255 95 31 255
-2.358843 1.858960 0.607051 255 95 31 255
-1.832062 0.479208 0.560176 255 95 31 255
-2.368892 1.979825 0.560176 255 95 31 255
-1.759041 0.530223 0.317989 255 95 31 255
-2.280082 1.986704 0.317989 255 95 31 255
-1.853714 0.678896 0.153926 255 95 31 255
-2.258968 1.811715 0.153926 255 95 31 255
-1.960468 0.814951 0.060176 255 95 31 255
-2.255198 1.638819 0.060176 255 95 31 255
-1.968070 1.276884 -0.416386 255 95 31 255
-1.931290 1.290042 -0.330449 255 95 31 255
-1.848697 1.128749 -0.260136 255 95 31 255
-1.962745 1.146031 -0.385136 255 95 31 255
-1.969747 1.467123 -0.260136 255 95 31 255
-2.046954 1.381422 -0.385136 255 95 31 255
-1.990138 1.268989 -0.650761 255 95 31 255
-1.964838 1.128687 -0.603886 255 95 31 255
-2.059573 1.393502 -0.603886 255 95 31 255
-2.100477 1.229517 -0.822636 255 95 31 255
-2.023147 1.082936 -0.791386 255 95 31 255
-2.133671 1.391886 -0.791386 255 95 31 255
-1.931105 0.941618 -0.760136 255 95 31 255
-2.152153 1.559519 -0.760136 255 95 31 255
-1.929551 0.983661 -0.557011 255 95 31 255
-2.124284 1.528003 -0.557011 255 95 31 255
-1.950065 1.017809 -0.346074 255 95 31 255
-2.118482 1.488591 -0.346074 255 95 31 255
-1.970040 1.027258 -0.197636 255 95 31 255
-2.127931 1.468616 -0.197636 255 95 31 255
-1.997371 1.034075 -0.127324 255 95 31 255
-2.036782 1.028274 -0.072636 255 95 31 255
-2.178884 1.425496 -0.072636 255 95 31 255
-2.144736 1.446010 -0.127324 255 95 31 255
-2.068837 1.025104 -0.017949 255 95 31 255
-2.205677 1.407614 -0.017949 255 95 31 255
-0.886743 1.663718 0.224239 255 95 31 255
-0.928062 1.292149 0.208614 255 95 31 255
-1.043126 1.242689 0.005489 255 95 31 255
-1.033862 1.611087 -0.041386 255 95 31 255
-1.274700 1.890014 0.005489 255 95 31 255
-1.154373 1.924762 0.208614 255 95 31 255
-1.316374 1.194721 -0.158574 255 95 31 255
-1.335457 1.503195 -0.228886 255 95 31 255
-1.516370 1.753775 -0.158574 255 95 31 255
-1.749899 1.130903 -0.236699 255 95 31 255
-1.843018 1.321620 -0.307011 255 95 31 255
-1.892001 1.528126 -0.236699 255 95 31 255
-1.485316 0.669632 0.107051 255 95 31 255
-1.431131 0.564555 0.388301 255 95 31 255
-1.980042 2.052554 0.107051 255 95 31 255
-2.004803 2.168156 0.388301 255 95 31 255
-0.864675 1.671612 0.716426 255 95 31 255
-0.849178 1.187611 0.591426 255 95 31 255
-1.159698 2.055615 0.591426 255 95 31 255
-1.938646 1.287410 1.052364 255 95 31 255
-1.734526 0.879185 1.005489 255 95 31 255
-1.447643 0.981814 1.083614 255 95 31 255
-1.592915 1.411092 1.138301 255 95 31 255
-1.752900 1.835106 1.083614 255 95 31 255
-2.039782 1.732477 1.005489 255 95 31 255
-1.153404 1.087075 1.021114 255 95 31 255
-1.151557 1.568983 1.052364 255 95 31 255
-1.458661 1.940367 1.021114 255 95 31 255
-1.738050 0.587516 0.560176 255 95 31 255
-1.718137 0.694208 0.607051 255 95 31 255
-2.227513 1.955726 0.560176 255 95 31 255
-2.144443 1.885875 0.607051 255 95 31 255
-1.515755 0.592363 0.716426 255 95 31 255
-1.502182 0.763166 0.857051 255 95 31 255
-2.052586 2.092981 0.716426 255 95 31 255
-1.933752 1.969545 0.857051 255 95 31 255
-1.287720 0.673941 0.771114 255 95 31 255
-1.266791 0.847375 0.903926 255 95 31 255
-1.824551 2.174558 0.771114 255 95 31 255
-1.698361 2.053754 0.903926 255 95 31 255
-1.059685 0.755518 0.692989 255 95 31 255
-1.031400 0.931584 0.833614 255 95 31 255
-1.596516 2.256135 0.692989 255 95 31 255
-1.462970 2.137962 0.833614 255 95 31 255
-0.994020 0.803901 0.419551 255 95 31 255
-0.906887 1.001019 0.482051 255 95 31 255
-1.322668 2.163262 0.482051 255 95 31 255
-1.515062 2.260382 0.419551 255 95 31 255
-1.915793 0.806041 0.677364 255 95 31 255
-2.226313 1.674045 0.677364 255 95 31 255
-2.203461 1.192675 0.724239 255 95 31 255
-1.332872 0.591409 0.474239 255 95 31 255
-1.911807 2.209722 0.474239 255 95 31 255
-1.198910 0.680819 0.482051 234 95 30 255
-1.751530 2.225573 0.482051 255 95 31 255
-1.323130 1.051249 -0.041386 255 95 31 255
-1.669399 0.952267 -0.017949 255 95 31 255
-1.612598 1.860406 -0.041386 255 95 31 255
-1.943078 1.717288 -0.017949 255 95 31 255
-1.312004 0.880985 0.028926 255 255 255 255
-1.711995 1.999092 0.028926 255 95 31 255
-1.046112 0.926321 0.146114 255 95 31 255
-0.988403 1.112913 0.177364 255 95 31 255
-1.314712 2.025053 0.177364 255 95 31 255
-1.477682 2.132699 0.146114 255 95 31 255
-1.027507 0.526406 0.630489 255 95 31 255
-1.145802 0.625142 0.560176 255 95 31 255
-1.149988 0.590455 0.513301 216 95 30 255
-1.052207 0.525867 0.567989 255 95 31 255
-1.771028 2.326463 0.513301 255 95 31 255
-1.745790 2.302302 0.560176 255 95 31 255
-1.716966 2.453669 0.630489 255 95 31 255
-1.736402 2.438418 0.567989 255 95 31 255
-0.898685 0.398245 0.591426 255 95 31 255
-0.853472 0.364636 0.661739 255 95 31 255
-1.698668 2.634459 0.591426 138 95 28 255
-1.685033 2.689121 0.661739 146 95 28 255
-0.857658 0.329949 0.442989 255 95 31 255
-0.814000 0.254296 0.474239 255 95 31 255
-1.710271 2.713282 0.442989 138 95 28 255
-1.724506 2.799461 0.474239 220 95 31 255
-0.876079 0.381441 0.232051 255 95 31 255
-0.830327 0.323131 0.208614 255 95 31 255
-1.691851 2.661790 0.232051 147 95 28 255
-1.693466 2.735888 0.208614 251 95 31 255
-1.032231 0.516418 0.114864 255 95 31 255
-1.007532 0.516957 0.052364 255 95 31 255
-1.726953 2.458393 0.114864 239 95 31 255
-1.707517 2.473644 0.052364 255 95 31 255
-1.262482 0.649780 0.083614 255 95 31 255
-1.288259 0.698640 0.013301 255 95 31 255
-1.820365 2.209245 0.083614 255 95 31 255
-1.809300 2.155121 0.013301 255 95 31 255
-0.970752 0.530114 0.153926 255 95 31 255
-1.170502 0.624603 0.130489 255 95 31 255
-1.765226 2.287052 0.130489 255 95 31 255
-1.670737 2.486802 0.153926 139 95 28 255
-0.847194 0.416666 0.247676 243 95 31 255
-1.647176 2.652880 0.247676 138 95 28 255
-0.831404 0.372530 0.403926 219 95 30 255
-1.662965 2.697016 0.403926 138 95 28 255
-0.859813 0.428746 0.513301 138 95 28 255
-1.649269 2.635537 0.513301 138 95 28 255
-0.983371 0.542195 0.497676 157 95 28 255
-1.672830 2.469458 0.497676 143 95 29 255
-1.075890 0.592071 0.458614 167 95 29 255
-1.712718 2.372215 0.458614 255 95 31 255
-1.262544 0.765921 0.130489 255 95 31 255
-1.355540 0.724355 0.153926 255 95 31 255
-1.746744 2.119419 0.130489 255 95 31 255
-1.845003 2.092565 0.153926 255 95 31 255
-1.183660 0.661383 0.442989 173 95 29 255
-1.752068 2.250272 0.442989 255 95 31 255
-1.135338 0.711859 0.138301 255 95 31 255
-1.682694 2.241900 0.138301 255 95 31 255
-1.124812 0.682435 0.169551 255 95 31 255
-1.247832 0.771184 0.192989 255 95 31 255
-1.732032 2.124682 0.192989 255 95 31 255
-1.693221 2.271324 0.169551 255 95 31 255
-1.153759 0.763351 0.247676 255 95 31 255
-1.132706 0.704503 0.239864 255 95 31 255
-1.664274 2.190408 0.247676 255 95 31 255
-1.685326 2.249256 0.239864 255 95 31 255
-1.127443 0.689791 0.325801 255 95 31 255
-1.199449 0.705519 0.357051 255 95 31 255
-1.736279 2.206136 0.357051 255 95 31 255
-1.690589 2.263968 0.325801 255 95 31 255
-1.116379 0.635668 0.396114 161 95 29 255
-1.716366 2.312828 0.396114 255 95 31 255
-1.064887 0.654088 0.388301 143 95 28 255
-1.021767 0.603135 0.442989 140 95 28 255
-1.664874 2.331249 0.388301 255 95 31 255
-1.663858 2.397991 0.442989 205 95 30 255
-1.080676 0.698224 0.325801 254 95 31 255
-1.649085 2.287113 0.325801 255 95 31 255
-1.106991 0.771784 0.247676 255 95 31 255
-1.622770 2.213553 0.247676 255 95 31 255
-1.085939 0.712936 0.232051 255 95 31 255
-1.643822 2.272401 0.232051 255 95 31 255
-1.078045 0.690868 0.169551 255 95 31 255
-1.651716 2.294469 0.169551 254 95 31 255
-1.091202 0.727648 0.138301 255 95 31 255
-1.638559 2.257689 0.138301 255 95 31 255
-1.119010 0.643024 0.138301 255 95 31 255
-1.713734 2.305472 0.138301 255 95 31 255
-0.926616 0.545903 0.482051 138 95 28 255
-1.626601 2.502591 0.482051 138 95 28 255
-0.810414 0.429824 0.497676 138 95 28 255
-1.610396 2.666038 0.497676 158 95 29 255
-0.779374 0.366252 0.396114 253 95 31 255
-1.626724 2.734873 0.396114 138 95 28 255
-0.802519 0.407756 0.239864 255 95 31 255
-1.618291 2.688106 0.239864 139 95 28 255
-0.916629 0.541179 0.153926 255 95 31 255
-1.621877 2.512578 0.153926 139 95 28 255
-1.034386 0.615216 0.216426 250 95 31 255
-1.057531 0.656720 0.263301 255 95 31 255
-1.665951 2.380648 0.216426 139 95 28 255
-1.657518 2.333880 0.263301 207 95 30 255
-0.983910 0.566894 0.278926 138 95 28 255
-1.011779 0.598411 0.325801 138 95 28 255
-1.657579 2.450022 0.278926 138 95 28 255
-1.659134 2.407979 0.325801 138 95 28 255
-0.950777 0.520665 0.341426 138 95 28 255
-0.971291 0.554814 0.388301 138 95 28 255
-1.661288 2.506776 0.341426 138 95 28 255
-1.655486 2.467365 0.388301 138 95 28 255
-0.925001 0.471805 0.364864 138 95 28 255
-0.932895 0.493873 0.427364 138 95 28 255
-1.672353 2.560900 0.364864 138 95 28 255
-1.664458 2.538832 0.427364 138 95 28 255
-1.091741 0.752348 0.028926 255 95 31 255
-0.853057 0.572219 0.067989 255 95 31 255
-1.623308 2.238253 0.028926 255 95 31 255
-1.553041 2.528906 0.067989 255 95 31 255
-0.724174 0.327917 0.208614 255 95 31 255
-1.608365 2.799522 0.208614 255 95 31 255
-0.735177 0.265899 0.450801 255 95 31 255
-1.656209 2.840488 0.450801 255 95 31 255
-0.730514 0.392028 0.622676 255 95 31 255
-1.572601 2.745938 0.622676 255 95 31 255
-0.865676 0.584299 0.591426 255 95 31 255
-1.555135 2.511562 0.591426 255 95 31 255
-1.016565 0.704565 0.536739 255 95 31 255
-1.595500 2.322877 0.536739 255 95 31 255
3 0 1 2
3 0 2 3
3 4 5 6
3 4 6 7
3 3 2 8
3 3 8 9
3 10 4 7
3 10 7 11
3 2 12 13
3 2 13 8
3 14 15 4
3 14 4 10
3 1 16 12
3 1 12 2
3 15 17 5
3 15 5 4
3 16 18 19
3 16 19 12
3 20 21 17
3 20 17 15
3 12 19 22
3 12 22 13
3 23 20 15
3 23 15 14
3 19 24 25
3 19 25 22
3 26 27 20
3 26 20 23
3 18 28 24
3 18 24 19
3 27 29 21
3 27 21 20
3 28 30 31
3 28 31 24
3 32 33 29
3 32 29 27
3 24 31 34
3 24 34 25
3 35 32 27
3 35 27 26
3 31 36 37
3 31 37 34
3 38 39 32
3 38 32 35
3 30 40 36
3 30 36 31
3 39 41 33
3 39 33 32
3 40 42 43
3 40 43 36
3 44 45 41
3 44 41 39
3 36 43 46
3 36 46 37
3 47 44 39
3 47 39 38
3 43 3 9
3 43 9 46
3 11 7 44
3 11 44 47
3 42 0 3
3 42 3 43
3 7 6 45
3 7 45 44
3 0 42 48
3 0 48 49
3 50 45 6
3 50 6 51
3 42 40 52
3 42 52 48
3 53 41 45
3 53 45 50
3 40 30 54
3 40 54 52
3 55 33 41
3 55 41 53
3 30 28 56
3 30 56 54
3 57 29 33
3 57 33 55
3 28 18 58
3 28 58 56
3 59 21 29
3 59 29 57
3 18 16 60
3 18 60 58
3 61 17 21
3 61 21 59
3 16 1 62
3 16 62 60
3 63 5 17
3 63 17 61
3 1 0 49
3 1 49 62
3 51 6 5
3 51 5 63
3 64 62 49
3 51 63 65
3 60 62 64
3 65 63 61
3 64 58 60
3 61 59 65
3 64 56 58
3 59 57 65
3 64 54 56
3 57 55 65
3 64 52 54
3 55 53 65
3 64 48 52
3 53 50 65
3 64 49 48
3 50 51 65
3 66 67 68
3 66 68 69
3 68 70 71
3 68 71 69
3 72 73 67
3 72 67 66
3 70 74 75
3 70 75 71
3 76 77 73
3 76 73 72
3 74 78 79
3 74 79 75
3 80 81 77
3 80 77 76
3 78 82 83
3 78 83 79
3 84 85 81
3 84 81 80
3 82 86 87
3 82 87 83
3 88 89 90
3 88 90 91
3 92 93 94
3 92 94 95
3 89 96 97
3 89 97 90
3 98 99 93
3 98 93 92
3 96 100 101
3 96 101 97
3 102 103 99
3 102 99 98
3 100 104 105
3 100 105 101
3 106 107 103
3 106 103 102
3 104 108 109
3 104 109 105
3 110 111 107
3 110 107 106
3 108 112 113
3 108 113 109
3 114 115 111
3 114 111 110
3 112 116 117
3 112 117 113
3 118 119 115
3 118 115 114
3 116 120 121
3 116 121 117
3 122 123 119
3 122 119 118
3 120 124 125
3 120 125 121
3 126 127 123
3 126 123 122
3 124 128 129
3 124 129 125
3 129 128 127
3 129 127 126
3 130 131 121
3 130 121 125
3 122 132 133
3 122 133 126
3 131 134 117
3 131 117 121
3 118 135 132
3 118 132 122
3 136 113 117
3 136 117 134
3 118 114 137
3 118 137 135
3 138 109 113
3 138 113 136
3 114 110 139
3 114 139 137
3 140 105 109
3 140 109 138
3 110 106 141
3 110 141 139
3 142 101 105
3 142 105 140
3 106 102 143
3 106 143 141
3 144 97 101
3 144 101 142
3 102 98 145
3 102 145 143
3 146 90 97
3 146 97 144
3 98 92 147
3 98 147 145
3 148 91 90
3 148 90 146
3 92 95 149
3 92 149 147
3 148 150 151
3 148 151 91
3 151 152 149
3 151 149 95
3 130 125 129
3 130 129 153
3 129 126 133
3 129 133 154
3 153 129 155
3 153 155 156
3 155 129 154
3 155 154 157
3 151 150 156
3 151 156 155
3 157 152 151
3 157 151 155
3 158 159 68
3 158 68 67
3 68 159 160
3 68 160 70
3 161 158 67
3 161 67 73
3 70 160 162
3 70 162 74
3 163 161 73
3 163 73 77
3 74 162 164
3 74 164 78
3 85 165 166
3 85 166 81
3 167 168 86
3 167 86 82
3 163 77 81
3 163 81 166
3 82 78 164
3 82 164 167
3 169 170 171
3 169 171 165
3 171 170 172
3 171 172 168
3 166 165 171
3 166 171 173
3 171 168 167
3 171 167 173
3 174 163 166
3 174 166 173
3 167 164 174
3 167 174 173
3 175 176 177
3 175 177 169
3 178 179 180
3 178 180 172
3 181 182 176
3 181 176 175
3 179 183 184
3 179 184 180
3 185 186 182
3 185 182 181
3 183 187 185
3 183 185 184
3 188 189 186
3 188 186 185
3 187 189 188
3 187 188 185
3 170 169 177
3 170 177 190
3 178 172 170
3 178 170 190
3 190 177 191
3 190 191 192
3 193 178 190
3 193 190 192
3 189 194 195
3 189 195 186
3 196 194 189
3 196 189 187
3 186 195 197
3 186 197 182
3 198 196 187
3 198 187 183
3 182 197 199
3 182 199 176
3 200 198 183
3 200 183 179
3 176 199 191
3 176 191 177
3 193 200 179
3 193 179 178
3 194 199 197
3 194 197 195
3 198 200 194
3 198 194 196
3 194 192 191
3 194 191 199
3 193 192 194
3 193 194 200
3 185 181 91
3 185 91 151
3 95 184 185
3 95 185 151
3 181 175 91
3 175 201 91
3 202 180 95
3 180 184 95
3 175 169 203
3 175 203 201
3 204 172 180
3 204 180 202
3 169 165 85
3 169 85 203
3 86 168 172
3 86 172 204
3 84 205 203
3 84 203 85
3 204 206 87
3 204 87 86
3 205 207 201
3 205 201 203
3 202 208 206
3 202 206 204
3 88 91 201
3 88 201 207
3 202 95 94
3 202 94 208
3 163 174 209
3 163 209 210
3 209 174 164
3 209 164 211
3 161 163 210
3 161 210 212
3 211 164 162
3 211 162 213
3 158 161 212
3 158 212 214
3 213 162 160
3 213 160 215
3 159 158 214
3 159 214 216
3 215 160 159
3 215 159 216
3 216 214 217
3 216 217 218
3 219 215 216
3 219 216 218
3 214 212 220
3 214 220 217
3 221 213 215
3 221 215 219
3 212 210 222
3 212 222 220
3 223 211 213
3 223 213 221
3 210 209 224
3 210 224 222
3 224 209 211
3 224 211 223
3 224 218 217
3 224 217 222
3 219 218 224
3 219 224 223
3 222 217 220
3 221 219 223
3 156 150 225
3 156 225 226
3 227 152 157
3 227 157 228
3 153 156 226
3 153 226 229
3 228 157 154
3 228 154 230
3 130 153 229
3 130 229 231
3 230 154 133
3 230 133 232
3 150 148 233
3 150 233 225
3 234 149 152
3 234 152 227
3 148 146 235
3 148 235 233
3 236 147 149
3 236 149 234
3 146 144 237
3 146 237 235
3 238 145 147
3 238 147 236
3 144 142 239
3 144 239 237
3 240 143 145
3 240 145 238
3 142 140 241
3 142 241 239
3 242 141 143
3 242 143 240
3 140 138 243
3 140 243 241
3 244 139 141
3 244 141 242
3 138 136 245
3 138 245 243
3 246 137 139
3 246 139 244
3 136 134 247
3 136 247 245
3 248 135 137
3 248 137 246
3 134 131 249
3 134 249 247
3 250 132 135
3 250 135 248
3 131 130 231
3 131 231 249
3 232 133 132
3 232 132 250
3 249 231 251
3 249 251 252
3 253 232 250
3 253 250 254
3 247 249 252
3 247 252 255
3 254 250 248
3 254 248 256
3 245 247 255
3 245 255 257
3 256 248 246
3 256 246 258
3 243 245 257
3 243 257 259
3 258 246 244
3 258 244 260
3 241 243 259
3 241 259 261
3 260 244 242
3 260 242 262
3 239 241 261
3 239 261 263
3 262 242 240
3 262 240 264
3 237 239 263
3 237 263 265
3 264 240 238
3 264 238 266
3 235 237 265
3 235 265 267
3 266 238 236
3 266 236 268
3 233 235 267
3 233 267 269
3 268 236 234
3 268 234 270
3 225 233 269
3 225 269 271
3 270 234 227
3 270 227 272
3 231 229 273
3 231 273 251
3 274 230 232
3 274 232 253
3 229 226 275
3 229 275 273
3 276 228 230
3 276 230 274
3 226 225 271
3 226 271 275
3 272 227 228
3 272 228 276
3 128 124 277
3 128 277 278
3 279 127 128
3 279 128 278
3 124 120 280
3 124 280 277
3 281 123 127
3 281 127 279
3 120 116 282
3 120 282 280
3 283 119 123
3 283 123 281
3 116 112 284
3 116 284 282
3 285 115 119
3 285 119 283
3 112 108 286
3 112 286 284
3 287 111 115
3 287 115 285
3 108 104 288
3 108 288 286
3 289 107 111
3 289 111 287
3 104 100 290
3 104 290 288
3 291 103 107
3 291 107 289
3 100 96 292
3 100 292 290
3 293 99 103
3 293 103 291
3 96 89 294
3 96 294 292
3 295 93 99
3 295 99 293
3 296 297 298
3 296 298 299
3 300 297 296
3 300 296 301
3 302 296 299
3 302 299 303
3 301 296 302
3 301 302 304
3 305 302 303
3 305 303 306
3 304 302 305
3 304 305 307
3 66 69 305
3 66 305 306
3 305 69 71
3 305 71 307
3 72 66 306
3 72 306 308
3 307 71 75
3 307 75 309
3 76 72 308
3 76 308 310
3 309 75 79
3 309 79 311
3 80 76 310
3 80 310 312
3 311 79 83
3 311 83 313
3 310 303 299
3 310 299 312
3 301 304 311
3 301 311 313
3 310 308 306
3 310 306 303
3 307 309 311
3 307 311 304
3 314 312 299
3 314 299 298
3 301 313 315
3 301 315 300
3 84 80 312
3 84 312 314
3 313 83 87
3 313 87 315
3 205 316 317
3 205 317 207
3 318 319 206
3 318 206 208
3 84 314 316
3 84 316 205
3 319 315 87
3 319 87 206
3 88 207 317
3 88 317 320
3 318 208 94
3 318 94 321
3 88 320 294
3 88 294 89
3 295 321 94
3 295 94 93
3 322 323 324
3 322 324 325
3 326 327 322
3 326 322 325
3 325 324 328
3 325 328 329
3 330 326 325
3 330 325 329
3 329 328 331
3 329 331 332
3 333 330 329
3 333 329 332
3 332 331 298
3 332 298 297
3 300 333 332
3 300 332 297
3 314 298 331
3 314 331 316
3 333 300 315
3 333 315 319
3 290 292 334
3 290 334 335
3 336 293 291
3 336 291 337
3 338 339 323
3 338 323 322
3 327 340 338
3 327 338 322
3 341 342 343
3 341 343 344
3 345 346 341
3 345 341 344
3 344 343 347
3 344 347 348
3 349 345 344
3 349 344 348
3 348 347 339
3 348 339 338
3 340 349 348
3 340 348 338
3 286 288 350
3 286 350 351
3 352 289 287
3 352 287 353
3 351 350 354
3 351 354 355
3 356 352 353
3 356 353 357
3 355 354 358
3 355 358 359
3 360 356 357
3 360 357 361
3 359 358 362
3 359 362 363
3 364 360 361
3 364 361 365
3 366 367 363
3 366 363 362
3 365 368 369
3 365 369 364
3 339 347 363
3 339 363 367
3 365 349 340
3 365 340 368
3 347 343 359
3 347 359 363
3 361 345 349
3 361 349 365
3 343 342 355
3 343 355 359
3 357 346 345
3 357 345 361
3 342 370 351
3 342 351 355
3 353 371 346
3 353 346 357
3 284 286 351
3 284 351 370
3 353 287 285
3 353 285 371
3 372 370 342
3 372 342 341
3 346 371 372
3 346 372 341
3 277 280 282
3 277 282 284
3 283 281 279
3 283 279 285
3 277 284 370
3 277 370 372
3 371 285 279
3 371 279 372
3 278 277 372
3 372 279 278
3 288 290 335
3 288 335 350
3 337 291 289
3 337 289 352
3 335 373 354
3 335 354 350
3 356 374 337
3 356 337 352
3 373 375 358
3 373 358 354
3 360 376 374
3 360 374 356
3 366 362 358
3 366 358 375
3 360 364 369
3 360 369 376
3 331 328 377
3 331 377 378
3 379 330 333
3 379 333 380
3 334 378 377
3 334 377 381
3 379 380 336
3 379 336 382
3 292 294 378
3 292 378 334
3 380 295 293
3 380 293 336
3 294 317 316
3 294 316 378
3 319 318 295
3 319 295 380
3 316 331 378
3 380 333 319
3 294 320 317
3 318 321 295
3 366 383 384
3 366 384 367
3 385 386 369
3 385 369 368
3 339 367 384
3 339 384 323
3 385 368 340
3 385 340 327
3 381 377 384
3 381 384 383
3 385 379 382
3 385 382 386
3 328 324 384
3 328 384 377
3 385 326 330
3 385 330 379
3 323 384 324
3 326 385 327
3 387 388 389
3 387 389 390
3 391 392 393
3 391 393 394
3 387 390 395
3 387 395 396
3 397 394 393
3 397 393 398
3 396 395 399
3 396 399 400
3 401 397 398
3 401 398 402
3 400 399 403
3 400 403 404
3 405 401 402
3 405 402 406
3 404 403 407
3 404 407 408
3 409 405 406
3 409 406 410
3 408 407 411
3 408 411 412
3 413 409 410
3 413 410 414
3 407 415 416
3 407 416 411
3 417 418 409
3 417 409 413
3 403 419 415
3 403 415 407
3 418 420 405
3 418 405 409
3 399 421 419
3 399 419 403
3 420 422 401
3 420 401 405
3 395 423 421
3 395 421 399
3 422 424 397
3 422 397 401
3 390 425 423
3 390 423 395
3 424 426 394
3 424 394 397
3 390 389 427
3 390 427 425
3 428 391 394
3 428 394 426
3 334 381 429
3 334 429 430
3 431 382 336
3 431 336 432
3 381 412 411
3 381 411 429
3 413 414 382
3 413 382 431
3 335 334 430
3 335 430 373
3 432 336 337
3 432 337 374
3 375 433 389
3 375 389 388
3 391 434 376
3 391 376 392
3 411 416 435
3 411 435 429
3 436 417 413
3 436 413 431
3 437 438 429
3 437 429 435
3 431 439 440
3 431 440 436
3 441 438 437
3 441 437 442
3 440 439 443
3 440 443 444
3 445 446 438
3 445 438 441
3 439 447 448
3 439 448 443
3 433 446 445
3 433 445 449
3 448 447 434
3 448 434 450
3 389 433 449
3 389 449 427
3 450 434 391
3 450 391 428
3 373 446 433
3 373 433 375
3 434 447 374
3 434 374 376
3 373 430 438
3 373 438 446
3 439 432 374
3 439 374 447
3 430 429 438
3 439 431 432
3 427 449 451
3 427 451 452
3 453 450 428
3 453 428 454
3 449 445 455
3 449 455 451
3 456 448 450
3 456 450 453
3 445 441 457
3 445 457 455
3 458 443 448
3 458 448 456
3 441 442 459
3 441 459 457
3 460 444 443
3 460 443 458
3 442 437 461
3 442 461 459
3 462 440 444
3 462 444 460
3 437 435 463
3 437 463 461
3 464 436 440
3 464 440 462
3 435 416 465
3 435 465 463
3 466 417 436
3 466 436 464
3 425 427 452
3 425 452 467
3 454 428 426
3 454 426 468
3 423 425 467
3 423 467 469
3 468 426 424
3 468 424 470
3 421 423 469
3 421 469 471
3 470 424 422
3 470 422 472
3 419 421 471
3 419 471 473
3 472 422 420
3 472 420 474
3 415 419 473
3 415 473 475
3 474 420 418
3 474 418 476
3 416 415 475
3 416 475 465
3 476 418 417
3 476 417 466
3 459 461 477
3 459 477 478
3 479 462 460
3 479 460 480
3 478 477 481
3 478 481 482
3 483 479 480
3 483 480 484
3 482 481 485
3 482 485 486
3 487 483 484
3 487 484 488
3 486 485 489
3 486 489 490
3 491 487 488
3 491 488 492
3 467 452 486
3 467 486 490
3 488 454 468
3 488 468 492
3 451 482 486
3 451 486 452
3 488 484 453
3 488 453 454
3 451 455 478
3 451 478 482
3 480 456 453
3 480 453 484
3 459 478 455
3 459 455 457
3 456 480 460
3 456 460 458
3 463 465 461
3 465 477 461
3 479 466 462
3 466 464 462
3 475 481 477
3 475 477 465
3 479 483 476
3 479 476 466
3 473 485 481
3 473 481 475
3 483 487 474
3 483 474 476
3 471 489 485
3 471 485 473
3 487 491 472
3 487 472 474
3 469 490 489
3 469 489 471
3 491 492 470
3 491 470 472
3 467 490 469
3 470 492 468
3 408 412 493
3 408 493 494
3 495 414 410
3 495 410 496
3 404 408 494
3 404 494 497
3 496 410 406
3 496 406 498
3 400 404 497
3 400 497 499
3 498 406 402
3 498 402 500
3 396 400 499
3 396 499 501
3 500 402 398
3 500 398 502
3 387 396 501
3 387 501 503
3 502 398 393
3 502 393 504
3 388 387 503
3 388 503 505
3 504 393 392
3 504 392 506
3 503 494 493
3 503 493 505
3 495 496 504
3 495 504 506
3 503 501 497
3 503 497 494
3 498 502 504
3 498 504 496
3 501 499 497
3 498 500 502
3 366 375 388
3 366 388 505
3 392 376 369
3 392 369 506
3 366 505 493
3 366 493 383
3 495 506 369
3 495 369 386
3 381 383 493
3 381 493 412
3 495 386 382
3 495 382 414
