ply
format ascii 1.0
comment Created by Blender 2.80 (sub 75) - www.blender.org, source file: ''
element vertex 250
property float x
property float y
property float z
property uchar red
property uchar green
property uchar blue
property uchar alpha
element face 500
property list uchar uint vertex_indices
end_header
0.759184 1.174174 -3.494210 255 255 0 255
0.944169 -0.232768 -3.374479 255 255 0 255
0.735654 -0.351453 -3.686998 255 255 0 255
-0.409132 0.188933 -2.080560 255 255 0 255
-0.599774 0.556428 -2.120538 255 255 0 255
-0.815224 0.233050 -2.409727 255 255 0 255
-1.000955 0.919361 -2.720665 255 255 0 255
-1.012210 -0.579351 -3.013501 255 255 0 255
-0.398409 1.348573 -3.712907 255 255 0 255
-0.165908 0.459729 -3.986644 255 255 0 255
-0.746666 0.318347 -3.696441 255 255 0 255
0.946240 1.250149 -3.128194 255 255 0 255
1.004492 0.675161 -2.973781 255 255 0 255
0.868609 0.414554 -2.447549 255 255 0 255
0.966133 -0.555453 -2.668890 255 255 0 255
0.265858 1.034739 -1.762336 255 255 0 255
0.446342 0.191184 -2.092690 255 255 0 255
0.568445 0.739518 -2.054283 255 255 0 255
-0.124028 0.980472 -1.762267 255 255 0 255
0.003945 0.280329 -1.986442 255 255 0 255
-0.774069 1.747704 -3.219070 255 255 0 255
-0.944399 0.546305 -3.315628 255 255 0 255
0.371145 1.721054 -3.554434 255 255 0 255
0.441198 0.503430 -3.900004 255 255 0 255
0.909715 1.151134 -2.281496 255 255 0 255
-0.682180 1.133668 -1.946104 255 255 0 255
-0.957703 2.047392 -2.658289 255 255 0 255
0.891986 2.115818 -2.767721 255 255 0 255
-0.100092 2.212213 -3.347538 255 255 0 255
-0.010341 1.370371 -3.775185 255 255 0 255
-0.393933 1.349875 -1.579493 255 255 0 255
-0.849021 1.709727 -1.762025 255 255 0 255
-1.003442 2.740737 -1.518032 255 255 0 255
-0.492859 2.408534 -3.051926 255 255 0 255
0.052286 2.792319 -2.908992 255 255 0 255
1.003451 2.408946 -1.934928 255 255 0 255
0.962672 2.161079 -1.695295 255 255 0 255
0.737813 1.517146 -1.748876 255 255 0 255
0.032256 1.576172 -1.234216 255 255 0 255
0.650330 3.098379 -2.187195 255 255 0 255
0.638985 2.328526 -3.000396 255 255 0 255
0.417529 1.689563 -1.232399 255 255 0 255
0.784681 2.008457 -1.260530 255 255 0 255
-0.590311 1.890826 -1.064669 255 255 0 255
-0.962761 2.462897 -1.128841 255 255 0 255
-0.785847 3.161180 -1.839675 255 255 0 255
-0.653580 2.821290 -2.534622 255 255 0 255
-0.232089 3.436867 -2.025176 255 255 0 255
-0.196912 1.904517 -0.678206 255 255 0 255
0.052044 3.803466 -1.301062 255 255 0 255
0.283067 3.433056 -2.033057 255 255 0 255
0.919796 2.520372 -0.568150 255 255 0 255
0.619366 2.151476 -0.568034 255 255 0 255
0.187248 1.956360 -0.527375 255 255 0 255
-0.481291 3.631230 -1.390763 255 255 0 255
-0.915608 3.452859 -0.286261 255 255 0 255
1.003103 3.169225 0.216168 255 255 0 255
0.252404 2.035313 -0.106440 255 255 0 255
-0.330899 3.907323 -0.674204 255 255 0 255
-0.282575 2.043052 -0.033345 255 255 0 255
-0.578578 2.086072 -0.640162 255 255 0 255
0.781633 3.666228 0.248851 255 255 0 255
0.927289 3.086120 -1.515892 255 255 0 255
0.612324 3.740067 -0.808926 255 255 0 255
0.569542 2.171752 0.201223 255 255 0 255
-0.972499 2.749707 0.438544 255 255 0 255
-0.526988 3.870814 0.023090 255 255 0 255
-0.767012 3.557809 -0.871646 255 255 0 255
0.551266 3.813755 0.551912 255 255 0 255
0.147660 4.017053 -0.128694 255 255 0 255
-0.290145 1.968035 0.478563 255 255 0 255
-0.744734 2.322825 0.186844 255 255 0 255
-0.142560 3.972499 0.466310 255 255 0 255
0.953229 2.469389 1.027590 255 255 0 255
-0.793278 3.496486 1.068995 255 255 0 255
0.251735 3.777477 1.325364 255 255 0 255
-0.785857 2.141303 1.030429 255 255 0 255
-0.393073 3.759320 1.194790 255 255 0 255
0.985513 2.970873 1.330983 255 255 0 255
-0.996401 3.046195 0.956316 255 255 0 255
0.695559 3.314643 1.757494 255 255 0 255
-0.324862 1.751092 1.074634 255 255 0 255
0.128832 1.591352 1.217465 255 255 0 255
0.213140 1.939133 0.573548 255 255 0 255
0.688928 2.062718 0.956013 255 255 0 255
-0.098067 3.469374 2.014985 255 255 0 255
-0.581011 3.192639 2.135963 255 255 0 255
0.324495 3.084087 2.503317 255 255 0 255
0.810833 1.903167 1.472181 255 255 0 255
-0.927577 1.917371 1.755536 255 255 0 255
-0.928603 2.521958 2.331011 255 255 0 255
0.785387 2.820556 2.300332 255 255 0 255
0.517319 1.525577 1.498747 255 255 0 255
-0.181559 2.750182 2.915450 255 255 0 255
-0.191973 1.257493 1.583493 255 255 0 255
-0.603823 1.425148 1.669829 255 255 0 255
0.581262 2.147691 3.191908 255 255 0 255
0.204910 2.479523 3.133359 255 255 0 255
0.978167 2.032207 2.609045 255 255 0 255
0.845011 1.244897 2.157698 255 255 0 255
0.646313 1.019259 1.988788 255 255 0 255
-1.016086 1.317585 2.781556 255 255 0 255
-0.857184 1.831541 3.037128 255 255 0 255
0.983833 0.901521 2.688235 255 255 0 255
0.979110 1.977172 1.961377 255 255 0 255
-0.627649 0.734274 2.106067 255 255 0 255
-0.588379 2.598731 2.813775 255 255 0 255
-0.526160 1.869085 3.378489 255 255 0 255
-0.105483 1.831349 3.572162 255 255 0 255
0.732139 1.289914 3.479095 255 255 0 255
0.241717 0.666365 1.924514 255 255 0 255
0.255178 1.222339 1.608356 255 255 0 255
-0.237152 0.560195 1.955887 255 255 0 255
0.342113 1.334281 3.722262 255 255 0 255
0.992735 0.896323 3.091130 255 255 0 255
-0.636679 0.963777 3.668918 255 255 0 255
-0.295200 1.065205 3.831659 255 255 0 255
-0.000782 0.788619 3.939558 255 255 0 255
-0.792822 0.122041 2.393316 255 255 0 255
-0.900311 1.311348 2.194836 255 255 0 255
0.866932 0.313613 2.472715 255 255 0 255
0.563305 0.347705 2.139032 255 255 0 255
0.483821 0.158237 3.907448 255 255 0 255
0.086059 -0.165663 1.993967 255 255 0 255
-0.971301 -0.267304 2.753765 255 255 0 255
-0.758075 -0.017554 3.677552 255 255 0 255
-0.890068 0.548691 3.461538 255 255 0 255
-0.383260 -0.117972 3.948022 255 255 0 255
-0.987011 -0.678576 3.216006 255 255 0 255
-0.011402 -0.081778 4.016931 255 255 0 255
0.733182 -0.263969 2.303699 255 255 0 255
0.446926 -0.387816 2.074529 255 255 0 255
0.838879 -0.599336 3.536742 255 255 0 255
0.841032 0.543621 3.540625 255 255 0 255
-0.013232 -0.891025 3.929687 255 255 0 255
0.996621 -1.439239 2.873871 255 255 0 255
-0.421783 -0.250303 2.075089 255 255 0 255
-0.851782 -0.899711 2.304415 255 255 0 255
-0.615882 -1.127382 3.641107 255 255 0 255
-0.564410 -0.906374 1.984840 255 255 0 255
0.161783 -1.505729 3.708437 255 255 0 255
0.542738 -1.154246 3.691412 255 255 0 255
0.594770 -1.013135 1.950342 255 255 0 255
0.884401 -2.007547 2.893918 255 255 0 255
-1.010482 -1.823731 2.366749 255 255 0 255
-0.878429 -1.917257 2.955013 255 255 0 255
-0.246096 -1.831492 3.542025 255 255 0 255
0.580863 -1.954052 3.293922 255 255 0 255
0.171322 -2.262606 3.304896 255 255 0 255
0.945651 -1.675166 2.070021 255 255 0 255
0.961462 -0.552414 2.639815 255 255 0 255
-0.808858 -1.436033 1.936196 255 255 0 255
-0.606544 -2.106459 3.180530 255 255 0 255
-0.393759 -1.476421 1.475540 255 255 0 255
-0.149501 -0.826073 1.821543 255 255 0 255
0.409158 -1.508853 1.447530 255 255 0 255
0.122861 -1.062818 1.693114 255 255 0 255
0.504097 -2.742697 2.761406 255 255 0 255
0.735297 -1.865745 1.399706 255 255 0 255
-0.801308 -2.058226 1.221919 255 255 0 255
0.006447 -3.155797 2.508843 255 255 0 255
-0.412924 -2.661768 2.898887 255 255 0 255
-0.761106 -3.006699 2.116010 255 255 0 255
0.870673 -2.961811 1.918684 255 255 0 255
0.992449 -2.979224 1.234556 255 255 0 255
1.001773 -3.094683 0.344123 255 255 0 255
0.913073 -2.323349 1.134135 255 255 0 255
-0.499601 -3.351829 1.968464 255 255 0 255
0.099385 -1.853720 0.770865 255 255 0 255
0.026069 -1.480647 1.347038 255 255 0 255
0.411972 -1.874871 0.925450 255 255 0 255
-0.403713 -1.923410 0.788032 255 255 0 255
-0.014180 -3.670671 1.634283 255 255 0 255
0.700854 -2.179911 0.675837 255 255 0 255
0.312464 -3.863463 0.948506 255 255 0 255
0.488009 -3.351872 1.984380 255 255 0 255
0.742090 -3.575068 0.951862 255 255 0 255
-0.881409 -3.305963 1.171688 255 255 0 255
-0.376691 -3.787113 1.140166 255 255 0 255
0.927693 -2.622654 -0.133814 255 255 0 255
0.791450 -2.376664 0.076518 255 255 0 255
-0.269141 -2.010343 0.301178 255 255 0 255
-0.797536 -2.317274 0.544207 255 255 0 255
-1.001918 -2.822232 0.822704 255 255 0 255
-0.738067 -3.722058 0.082652 255 255 0 255
0.866426 -3.527330 0.065686 255 255 0 255
0.085910 -2.007283 0.068631 255 255 0 255
-0.935767 -3.411752 0.144199 255 255 0 255
0.477913 -3.905000 0.028337 255 255 0 255
0.383730 -2.064750 -0.320977 255 255 0 255
-0.955850 -2.632859 -0.588348 255 255 0 255
-0.422950 -3.912949 -0.374962 255 255 0 255
-0.284330 -3.930596 0.599263 255 255 0 255
-0.046892 -4.014281 -0.107087 255 255 0 255
-0.392423 -2.063393 -0.160093 255 255 0 255
0.160152 -3.920518 -0.847693 255 255 0 255
0.621120 -3.686259 -0.946916 255 255 0 255
0.609776 -2.101854 -0.716360 255 255 0 255
0.947675 -2.341617 -1.244010 255 255 0 255
-0.142240 -1.927683 -0.530011 255 255 0 255
-0.991643 -2.849809 -1.545453 255 255 0 255
-0.734258 -3.533491 -1.128030 255 255 0 255
0.214764 -3.672548 -1.562806 255 255 0 255
-0.381502 -3.652966 -1.508943 255 255 0 255
0.446316 -3.264917 -2.166687 255 255 0 255
0.701842 -3.316630 -1.703110 255 255 0 255
0.181038 -1.673681 -1.114480 255 255 0 255
-0.312331 -1.827065 -0.922634 255 255 0 255
-0.607805 -1.851656 -1.189576 255 255 0 255
-0.766744 -2.326808 -0.441258 255 255 0 255
-0.909673 -2.157479 -1.423626 255 255 0 255
0.912214 -1.947269 -1.708996 255 255 0 255
-0.803251 -2.827737 -2.303317 255 255 0 255
-0.107875 -3.324545 -2.246032 255 255 0 255
0.801977 -2.696575 -2.444719 255 255 0 255
0.995533 -2.852163 -1.429317 255 255 0 255
0.901180 -3.322366 -1.026334 255 255 0 255
0.489651 -1.626913 -1.377872 255 255 0 255
0.735135 -1.607480 -1.678036 255 255 0 255
-0.427644 -1.466574 -1.500026 255 255 0 255
-0.805468 -1.574977 -1.833100 255 255 0 255
-0.980512 -1.726916 -2.224989 255 255 0 255
0.074652 -2.730639 -2.960729 255 255 0 255
0.960435 -1.418063 -2.314360 255 255 0 255
0.020846 -1.303631 -1.512080 255 255 0 255
-0.995619 -1.936429 -2.531065 255 255 0 255
-0.637538 -2.141342 -3.155575 255 255 0 255
-0.400918 -3.025658 -2.515166 255 255 0 255
0.341108 -2.167058 -3.320809 255 255 0 255
0.292467 -1.035222 -1.750333 255 255 0 255
0.786082 -0.681222 -2.311852 255 255 0 255
-0.449842 -0.971394 -1.861627 255 255 0 255
-0.914331 -1.046046 -3.290264 255 255 0 255
-0.115034 -1.792349 -3.588134 255 255 0 255
0.222830 -0.419647 -1.989538 255 255 0 255
0.784622 -1.299672 -3.398321 255 255 0 255
0.984192 -1.701643 -2.801244 255 255 0 255
0.658275 -1.880443 -3.288269 255 255 0 255
-0.944014 -0.636740 -2.592173 255 255 0 255
-0.685070 -1.424630 -3.489029 255 255 0 255
0.384076 -1.030770 -3.813041 255 255 0 255
-0.249595 -0.466743 -1.969978 255 255 0 255
-0.720055 -0.645217 -2.214164 255 255 0 255
-0.427177 -0.622007 -3.878138 255 255 0 255
-0.084910 -1.113655 -3.856472 255 255 0 255
0.107705 -0.303106 -3.998271 255 255 0 255
0.529810 -0.586349 -2.071105 255 255 0 255
-0.841474 2.385362 -0.580238 255 255 0 255
0.836701 2.449498 0.042540 255 255 0 255
-0.951875 -2.650949 2.054569 255 255 0 255
3 0 1 2
3 3 4 5
3 6 7 5
3 8 9 10
3 11 12 1
3 12 13 14
3 15 16 17
3 18 3 19
3 20 10 21
3 22 0 23
3 24 13 12
3 17 13 24
3 4 25 5
3 6 26 21
3 20 8 10
3 27 11 0
3 8 28 29
3 30 25 18
3 25 31 6
3 31 32 6
3 32 26 6
3 20 33 8
3 33 28 8
3 34 22 28
3 35 12 11
3 35 24 12
3 24 36 37
3 38 30 18
3 39 40 34
3 41 15 37
3 15 41 18
3 40 39 27
3 42 41 37
3 30 43 31
3 44 32 31
3 26 45 46
3 46 47 34
3 44 31 43
3 48 43 38
3 49 50 47
3 51 42 36
3 42 52 41
3 41 53 38
3 45 54 47
3 55 45 32
3 56 36 35
3 52 57 53
3 58 49 54
3 56 51 36
3 59 60 48
3 61 62 63
3 52 64 57
3 65 32 44
3 55 66 67
3 68 61 69
3 70 71 59
3 72 69 66
3 56 73 51
3 74 66 55
3 72 75 69
3 75 68 69
3 76 65 71
3 74 77 66
3 77 72 66
3 61 78 56
3 76 71 70
3 79 74 55
3 80 61 68
3 81 76 70
3 82 83 84
3 77 85 75
3 82 70 83
3 82 81 70
3 74 86 77
3 85 87 75
3 73 88 84
3 89 79 65
3 90 86 74
3 80 91 78
3 84 92 82
3 86 93 85
3 85 93 87
3 94 81 82
3 81 95 76
3 95 89 76
3 96 91 87
3 96 87 97
3 96 98 91
3 99 100 92
3 101 79 89
3 101 90 79
3 101 102 90
3 103 99 104
3 94 105 95
3 106 107 93
3 93 108 97
3 96 109 98
3 100 110 111
3 112 94 111
3 113 96 108
3 114 103 98
3 115 107 102
3 107 116 108
3 117 113 108
3 118 101 119
3 99 120 121
3 121 110 100
3 113 122 109
3 120 99 103
3 121 123 110
3 124 101 118
3 125 115 126
3 127 116 115
3 128 126 101
3 129 117 116
3 117 129 122
3 130 121 120
3 130 131 121
3 124 128 101
3 132 133 122
3 132 114 133
3 134 122 129
3 132 135 114
3 128 125 126
3 136 137 118
3 138 127 125
3 127 134 129
3 136 139 137
3 137 124 118
3 134 140 141
3 130 142 131
3 143 132 141
3 132 143 135
3 144 128 124
3 128 145 138
3 138 146 134
3 147 141 140
3 148 147 140
3 135 149 150
3 139 151 137
3 145 152 138
3 152 146 138
3 153 139 154
3 142 155 156
3 157 147 148
3 157 143 147
3 158 142 149
3 151 159 137
3 160 157 148
3 142 158 155
3 160 148 161
3 145 162 161
3 163 143 157
3 163 135 143
3 163 164 135
3 164 165 149
3 166 158 149
3 167 161 162
3 161 167 160
3 165 166 149
3 155 168 169
3 170 168 155
3 168 171 169
3 171 153 169
3 153 171 159
3 172 160 167
3 158 173 170
3 172 174 175
3 176 163 175
3 176 164 163
3 177 167 162
3 178 172 167
3 179 166 165
3 166 180 173
3 181 171 168
3 182 183 159
3 184 178 177
3 185 164 176
3 168 186 181
3 187 177 183
3 187 184 177
3 174 188 176
3 180 189 173
3 189 168 173
3 189 186 168
3 182 190 183
3 191 192 184
3 192 193 174
3 194 182 181
3 195 188 193
3 188 196 185
3 180 197 189
3 196 188 195
3 165 198 179
3 199 194 186
3 190 200 183
3 183 200 187
3 198 197 179
3 187 201 184
3 201 191 184
3 202 196 195
3 201 203 191
3 204 196 202
3 204 205 196
3 206 199 189
3 207 208 209
3 209 208 210
3 209 210 190
3 211 197 198
3 212 201 200
3 203 213 202
3 214 215 216
3 217 206 197
3 211 218 197
3 218 217 197
3 207 219 208
3 208 220 210
3 221 190 210
3 222 204 213
3 221 200 190
3 215 223 198
3 206 224 207
3 224 219 207
3 219 220 208
3 222 214 204
3 200 225 212
3 212 226 227
3 222 228 214
3 229 224 217
3 230 229 218
3 231 219 224
3 232 226 225
3 226 233 222
3 14 223 215
3 229 234 224
3 234 231 224
3 231 220 219
3 235 236 237
3 236 14 215
3 220 238 221
3 232 239 226
3 240 228 233
3 240 237 228
3 241 231 234
3 7 232 225
3 240 235 237
3 241 242 231
3 243 244 239
3 14 230 223
3 238 7 221
3 7 225 221
3 245 240 244
3 5 238 242
3 12 14 236
3 241 3 242
3 10 239 232
3 246 16 234
3 5 242 3
3 14 13 230
3 13 16 230
3 19 241 234
3 19 3 241
3 7 21 232
3 243 9 245
3 245 9 23
3 16 19 234
3 2 23 0
3 0 11 1
3 13 17 16
3 7 6 21
3 29 23 9
3 23 29 22
3 16 15 19
3 18 4 3
3 9 8 29
3 19 15 18
3 21 26 20
3 25 6 5
3 28 22 29
3 22 40 0
3 4 18 25
3 0 40 27
3 24 37 17
3 37 15 17
3 34 40 22
3 27 35 11
3 25 30 31
3 26 46 20
3 46 33 20
3 35 36 24
3 33 34 28
3 27 62 35
3 18 41 38
3 46 34 33
3 34 50 39
3 27 39 62
3 36 42 37
3 30 38 43
3 34 47 50
3 32 45 26
3 46 45 47
3 48 60 43
3 51 52 42
3 52 53 41
3 38 53 48
3 39 50 63
3 39 63 62
3 62 56 35
3 60 247 43
3 43 247 44
3 67 54 45
3 54 49 47
3 50 49 63
3 55 67 45
3 54 67 58
3 49 69 63
3 58 69 49
3 61 56 62
3 248 52 51
3 48 53 59
3 59 71 60
3 60 71 247
3 247 65 44
3 32 79 55
3 67 66 58
3 63 69 61
3 248 64 52
3 247 71 65
3 58 66 69
3 53 57 59
3 32 65 79
3 51 73 248
3 57 83 59
3 73 64 248
3 64 83 57
3 83 70 59
3 78 73 56
3 73 84 64
3 72 77 75
3 75 80 68
3 84 83 64
3 61 80 78
3 76 89 65
3 79 90 74
3 77 86 85
3 87 80 75
3 78 91 98
3 78 98 73
3 73 104 88
3 80 87 91
3 98 104 73
3 84 88 92
3 90 106 86
3 111 94 82
3 94 95 81
3 86 106 93
3 93 97 87
3 104 99 88
3 88 99 92
3 92 111 82
3 98 103 104
3 92 100 111
3 89 95 119
3 89 119 101
3 102 106 90
3 102 107 106
3 93 107 108
3 97 108 96
3 110 112 111
3 105 119 95
3 109 114 98
3 94 112 105
3 113 109 96
3 101 126 102
3 126 115 102
3 115 116 107
3 133 114 109
3 99 121 100
3 119 105 118
3 108 116 117
3 117 122 113
3 122 133 109
3 114 150 103
3 110 123 112
3 112 123 136
3 112 136 105
3 136 118 105
3 125 127 115
3 127 129 116
3 103 150 120
3 121 131 123
3 150 130 120
3 122 134 141
3 122 141 132
3 114 135 150
3 125 128 138
3 131 154 123
3 138 134 127
3 150 142 130
3 123 154 136
3 136 154 139
3 146 140 134
3 142 156 131
3 131 156 154
3 124 137 144
3 140 146 148
3 141 147 143
3 150 149 142
3 154 156 153
3 128 144 145
3 137 159 144
3 152 161 146
3 161 148 146
3 155 169 156
3 153 151 139
3 135 164 149
3 156 169 153
3 144 249 145
3 152 145 161
3 249 162 145
3 153 159 151
3 157 160 175
3 157 175 163
3 155 158 170
3 159 183 144
3 183 249 144
3 160 172 175
3 249 177 162
3 174 176 175
3 166 173 158
3 171 182 159
3 183 177 249
3 177 178 167
3 179 180 166
3 172 178 174
3 170 173 168
3 171 181 182
3 184 192 178
3 192 174 178
3 174 193 188
3 188 185 176
3 164 185 165
3 181 186 194
3 182 194 209
3 182 209 190
3 191 193 192
3 185 216 165
3 196 216 185
3 180 179 197
3 216 215 165
3 186 189 199
3 191 195 193
3 194 199 207
3 200 201 187
3 191 203 195
3 207 209 194
3 196 205 216
3 206 207 199
3 195 203 202
3 165 215 198
3 197 206 189
3 201 212 203
3 202 213 204
3 205 214 216
3 212 227 203
3 203 227 213
3 205 204 214
3 215 214 236
3 223 211 198
3 206 217 224
3 213 227 222
3 210 220 221
3 214 228 237
3 214 237 236
3 217 218 229
3 221 225 200
3 226 222 227
3 223 218 211
3 225 226 212
3 233 228 222
3 239 233 226
3 223 230 218
3 246 229 230
3 231 242 220
3 229 246 234
3 242 238 220
3 239 244 233
3 244 240 233
3 235 1 236
3 240 2 235
3 235 2 1
3 239 10 243
3 243 245 244
3 245 23 240
3 240 23 2
3 246 230 16
3 1 12 236
3 238 5 7
3 232 21 10
3 10 9 243
