ply
format ascii 1.0
comment Created by Blender 2.80 (sub 75) - www.blender.org, source file: ''
element vertex 500
property float x
property float y
property float z
property uchar red
property uchar green
property uchar blue
property uchar alpha
element face 1000
property list uchar uint vertex_indices
end_header
0.608253 0.386462 -3.782390 255 255 0 255
0.720314 -0.125112 -3.708202 255 255 0 255
0.376296 0.013778 -3.935830 255 255 0 255
0.930279 0.233930 -3.379895 255 255 0 255
1.004492 0.675161 -2.973781 255 255 0 255
0.942515 -0.536136 -3.323869 255 255 0 255
0.367039 0.827631 -3.858209 255 255 0 255
0.009013 0.508404 -3.977894 255 255 0 255
0.742023 0.925865 -3.575008 255 255 0 255
-0.994161 -0.083407 -2.874158 255 255 0 255
-1.002781 0.909707 -2.845604 255 255 0 255
-0.987538 -0.453150 -3.173005 255 255 0 255
-0.779063 0.816536 -3.544932 255 255 0 255
-0.598492 0.431369 -3.793590 255 255 0 255
-0.786825 -0.135156 -3.630479 255 255 0 255
0.540438 0.541575 -2.088703 255 255 0 255
0.322491 0.316690 -2.030656 255 255 0 255
0.559254 0.064350 -2.173374 255 255 0 255
-0.539086 0.006179 -2.165494 255 255 0 255
-0.642103 0.601807 -2.146344 255 255 0 255
-0.778323 -0.003068 -2.365807 255 255 0 255
-0.966721 0.899273 -2.589341 255 255 0 255
-0.859505 0.536946 -2.429281 255 255 0 255
-0.524172 1.063884 -3.718090 255 255 0 255
-0.315679 0.746572 -3.886176 255 255 0 255
0.914754 1.137957 -3.234534 255 255 0 255
0.925874 0.450575 -2.593082 255 255 0 255
0.993006 -0.335138 -2.909686 255 255 0 255
0.061647 0.320316 -1.985028 255 255 0 255
-0.318435 0.267478 -2.039335 255 255 0 255
-0.114538 0.115449 -2.007884 255 255 0 255
0.812166 1.036785 -2.186260 255 255 0 255
0.768285 0.369082 -2.335365 255 255 0 255
0.221921 0.826089 -1.846498 255 255 0 255
-0.145206 0.774025 -1.853165 255 255 0 255
-0.465721 0.734287 -1.980621 255 255 0 255
-0.816688 1.638177 -3.205241 255 255 0 255
-0.944399 0.546305 -3.315628 255 255 0 255
0.415482 1.479261 -3.633190 255 255 0 255
0.947935 1.343302 -2.310999 255 255 0 255
0.574545 0.934358 -1.965671 255 255 0 255
-0.503664 1.065724 -1.852344 255 255 0 255
-0.778097 1.149347 -2.073460 255 255 0 255
-0.971087 1.513569 -2.900878 255 255 0 255
-0.315517 1.664084 -3.600549 255 255 0 255
-0.010341 1.370371 -3.775185 255 255 0 255
-0.655549 1.931534 -3.233974 255 255 0 255
0.313536 2.019628 -3.401466 255 255 0 255
0.836237 1.913051 -2.997185 255 255 0 255
0.712278 1.483368 -3.405567 255 255 0 255
-0.092046 2.032946 -3.453982 255 255 0 255
0.320665 1.274809 -1.603805 255 255 0 255
-0.008334 1.157160 -1.633705 255 255 0 255
-0.277819 1.302786 -1.574106 255 255 0 255
-0.911432 1.658098 -1.990202 255 255 0 255
-0.991272 2.003694 -2.056583 255 255 0 255
-0.997012 2.296371 -2.117421 255 255 0 255
-0.492859 2.408534 -3.051926 255 255 0 255
0.220050 2.646063 -2.987896 255 255 0 255
0.661678 2.489015 -2.830826 255 255 0 255
0.562006 2.128432 -3.195657 255 255 0 255
1.003451 2.408946 -1.934928 255 255 0 255
0.963494 1.589359 -2.885735 255 255 0 255
0.802861 1.625965 -1.769526 255 255 0 255
0.952134 1.883422 -1.920266 255 255 0 255
-0.536793 1.527207 -1.524607 255 255 0 255
-0.767653 2.591566 -2.575896 255 255 0 255
-0.120509 2.930784 -2.728835 255 255 0 255
-0.129451 2.454837 -3.154735 255 255 0 255
0.050353 1.551686 -1.266602 255 255 0 255
0.554675 3.006613 -2.396397 255 255 0 255
0.417529 1.689563 -1.232399 255 255 0 255
0.625230 1.407516 -1.718930 255 255 0 255
0.775571 2.879367 -2.225196 255 255 0 255
0.916204 2.257242 -2.576990 255 255 0 255
0.784681 2.008457 -1.260530 255 255 0 255
-0.052138 1.671670 -1.101567 255 255 0 255
0.968147 2.377753 -1.358712 255 255 0 255
-0.703937 1.976534 -1.144014 255 255 0 255
-0.793171 1.718163 -1.654804 255 255 0 255
-0.906439 2.282540 -1.194000 255 255 0 255
-0.987815 2.588364 -1.196713 255 255 0 255
-0.934344 2.306186 -2.481864 255 255 0 255
-0.870843 3.090542 -1.666733 255 255 0 255
-0.506263 2.991635 -2.460652 255 255 0 255
-0.282967 3.347727 -2.136653 255 255 0 255
0.383523 3.509348 -1.786571 255 255 0 255
0.193713 3.291955 -2.267781 255 255 0 255
0.663667 3.305564 -1.789943 255 255 0 255
-0.103019 1.849405 -0.778339 255 255 0 255
-0.354736 1.684206 -1.192033 255 255 0 255
-0.995706 2.871928 -1.341447 255 255 0 255
-0.165424 3.545673 -1.836546 255 255 0 255
0.168360 3.761628 -1.359381 255 255 0 255
0.954430 3.207442 -0.878173 255 255 0 255
0.926373 2.859219 -1.852497 255 255 0 255
0.847745 2.356763 -0.716059 255 255 0 255
0.582586 2.031359 -0.807075 255 255 0 255
0.254379 1.871457 -0.783668 255 255 0 255
-0.678347 3.192481 -1.973826 255 255 0 255
-0.481291 3.631230 -1.390763 255 255 0 255
-0.272931 1.954817 -0.578038 255 255 0 255
-0.415708 1.924333 -0.820968 255 255 0 255
-0.767012 3.557809 -0.871646 255 255 0 255
-0.091464 3.811530 -1.231084 255 255 0 255
0.831163 3.277308 -1.412513 255 255 0 255
-0.948615 3.271086 -0.699557 255 255 0 255
0.414770 3.859562 -0.681626 255 255 0 255
0.597675 3.628335 -1.169860 255 255 0 255
1.002722 3.054316 -0.344408 255 255 0 255
0.651283 2.211933 -0.356452 255 255 0 255
0.368521 2.040930 -0.347664 255 255 0 255
0.055603 1.983668 -0.274707 255 255 0 255
-0.238322 3.936704 -0.617395 255 255 0 255
0.123933 3.943920 -0.649288 255 255 0 255
0.973250 2.743235 -0.460934 255 255 0 255
-0.341212 2.042074 -0.240727 255 255 0 255
-0.620545 2.128518 -0.617826 255 255 0 255
0.844839 3.544690 -0.197029 255 255 0 255
0.739046 3.617314 -0.730547 255 255 0 255
-0.047941 4.003200 -0.137835 255 255 0 255
0.278391 3.976005 0.127851 255 255 0 255
0.652402 3.769743 -0.042732 255 255 0 255
0.771760 2.363840 0.073796 255 255 0 255
0.897703 2.568219 0.086677 255 255 0 255
0.638028 2.224129 0.235942 255 255 0 255
-0.964431 2.730041 -0.040745 255 255 0 255
-0.799540 3.611794 -0.040649 255 255 0 255
-0.629272 3.788054 -0.093821 255 255 0 255
-0.430935 3.911158 0.145279 255 255 0 255
-0.498701 3.801875 -0.747025 255 255 0 255
0.213838 2.017507 0.081955 255 255 0 255
-0.236116 2.019842 0.135148 255 255 0 255
-0.924925 3.380289 0.275648 255 255 0 255
0.497820 3.862176 0.339861 255 255 0 255
0.821564 3.519136 0.690739 255 255 0 255
0.486830 2.103052 0.324955 255 255 0 255
-0.480269 2.081695 0.432347 255 255 0 255
-0.615131 2.204988 -0.145689 255 255 0 255
-0.981692 2.676457 0.804338 255 255 0 255
-0.142560 3.972499 0.466310 255 255 0 255
0.604818 3.738289 0.726141 255 255 0 255
0.979747 2.679089 0.804305 255 255 0 255
-0.752142 3.612322 0.685676 255 255 0 255
0.208131 3.863866 1.012074 255 255 0 255
-0.848925 2.295666 0.934233 255 255 0 255
-0.789173 2.379404 0.193849 255 255 0 255
-0.389536 3.815472 0.971167 255 255 0 255
0.922924 3.109476 1.393358 255 255 0 255
0.967476 3.287014 0.233492 255 255 0 255
0.326177 1.940925 0.674905 255 255 0 255
0.120124 1.957859 0.435196 255 255 0 255
-0.682596 2.105876 0.855675 255 255 0 255
-0.997851 3.116404 0.276321 255 255 0 255
-0.997466 2.904414 1.256667 255 255 0 255
-0.892812 3.236148 1.263439 255 255 0 255
0.768273 3.339635 1.494699 255 255 0 255
0.601076 1.965136 1.007932 255 255 0 255
-0.666033 3.496278 1.374550 255 255 0 255
0.085504 3.780513 1.329370 255 255 0 255
0.417996 3.586954 1.596866 255 255 0 255
-0.401176 1.790014 1.081409 255 255 0 255
-0.374946 3.622674 1.540656 255 255 0 255
0.570200 3.301656 1.947243 255 255 0 255
0.997618 2.843627 1.317412 255 255 0 255
0.331140 1.763928 1.055689 255 255 0 255
-0.050644 3.559239 1.843011 255 255 0 255
-0.025886 1.656935 1.121371 255 255 0 255
-0.214382 1.801582 0.921299 255 255 0 255
-0.091123 1.912554 0.591765 255 255 0 255
-0.680010 3.156294 2.018672 255 255 0 255
0.246484 3.257996 2.287873 255 255 0 255
0.785387 2.820556 2.300332 255 255 0 255
0.910893 2.385708 0.996137 255 255 0 255
0.810833 1.903167 1.472181 255 255 0 255
0.760135 2.178332 0.888662 255 255 0 255
-0.629743 1.795075 1.306493 255 255 0 255
-0.846707 1.849332 1.640421 255 255 0 255
-0.963083 2.049288 1.814440 255 255 0 255
-0.834257 2.646484 2.407612 255 255 0 255
-0.174705 3.333294 2.197714 255 255 0 255
-0.434667 3.240772 2.195120 255 255 0 255
0.946423 2.459589 2.264490 255 255 0 255
0.979110 1.977172 1.961377 255 255 0 255
0.177207 1.516299 1.329290 255 255 0 255
0.472827 2.852210 2.644426 255 255 0 255
0.517319 1.525577 1.498747 255 255 0 255
-0.143243 2.946367 2.707250 255 255 0 255
0.096609 1.282899 1.544179 255 255 0 255
-0.164621 1.332366 1.510526 255 255 0 255
-0.476110 1.407370 1.588721 255 255 0 255
-0.696616 1.470207 1.750178 255 255 0 255
0.261930 2.570654 3.032899 255 255 0 255
0.221596 2.986540 2.633559 255 255 0 255
0.644191 2.317898 2.990370 255 255 0 255
0.904947 1.931514 2.857427 255 255 0 255
0.997459 1.775306 2.592294 255 255 0 255
-0.246500 1.129456 1.688017 255 255 0 255
-0.964896 2.552256 2.093573 255 255 0 255
-0.911671 1.815418 2.912338 255 255 0 255
-0.571314 2.741013 2.683471 255 255 0 255
-0.187894 2.539360 3.086644 255 255 0 255
0.096129 2.251409 3.307673 255 255 0 255
0.827488 1.505461 1.913919 255 255 0 255
0.589567 1.100357 1.893975 255 255 0 255
-0.992384 1.076948 2.675184 255 255 0 255
-0.985718 1.258714 2.969318 255 255 0 255
0.475799 1.900147 3.398980 255 255 0 255
0.956388 1.275010 2.384918 255 255 0 255
0.668195 0.925183 2.051192 255 255 0 255
-0.568098 1.110059 1.860149 255 255 0 255
-0.590064 2.339731 3.015042 255 255 0 255
-0.526160 1.869085 3.378489 255 255 0 255
-0.195624 1.946256 3.485409 255 255 0 255
0.014614 1.718900 3.622253 255 255 0 255
0.796038 1.557445 3.264979 255 255 0 255
0.984886 0.690914 2.743924 255 255 0 255
0.874786 0.949512 2.331787 255 255 0 255
0.227018 0.844314 1.837927 255 255 0 255
0.365986 1.193167 1.684720 255 255 0 255
-0.258776 0.787294 1.870758 255 255 0 255
0.342113 1.334281 3.722262 255 255 0 255
0.997757 0.366798 3.108704 255 255 0 255
0.621303 1.187668 3.601807 255 255 0 255
0.939593 1.128523 3.160473 255 255 0 255
0.195833 0.459606 1.967069 255 255 0 255
-0.583256 0.733468 2.063032 255 255 0 255
-0.851497 1.013371 3.388646 255 255 0 255
-0.768888 1.825328 3.162246 255 255 0 255
-0.671533 1.297029 3.518405 255 255 0 255
-0.315269 1.287268 3.747095 255 255 0 255
-0.025157 1.064357 3.865670 255 255 0 255
0.754336 0.746957 3.599890 255 255 0 255
-0.672092 0.486825 2.199258 255 255 0 255
-0.840348 1.208473 2.145559 255 255 0 255
-0.873929 0.416665 2.489060 255 255 0 255
-0.946986 1.302965 2.341546 255 255 0 255
0.866932 0.313613 2.472715 255 255 0 255
0.563305 0.347705 2.139032 255 255 0 255
-0.996598 -0.057452 3.131310 255 255 0 255
-0.910620 0.256465 3.430714 255 255 0 255
-0.618200 0.746619 3.724783 255 255 0 255
0.367341 0.407986 3.924444 255 255 0 255
0.213325 -0.009128 2.024406 255 255 0 255
-0.982314 -0.233654 2.805436 255 255 0 255
-0.774628 0.227902 3.640316 255 255 0 255
-0.446765 0.224589 3.898920 255 255 0 255
-0.283149 0.768136 3.892114 255 255 0 255
0.632430 0.104932 3.783493 255 255 0 255
-0.313996 -0.229979 2.042629 255 255 0 255
-0.349171 0.326417 2.039088 255 255 0 255
-0.090469 0.427932 1.959946 255 255 0 255
-0.156927 0.113544 3.990442 255 255 0 255
0.044213 0.546193 3.969875 255 255 0 255
0.066637 -0.244965 4.001634 255 255 0 255
0.733182 -0.263969 2.303699 255 255 0 255
0.500381 -0.253190 2.123480 255 255 0 255
0.021743 -0.143449 1.997220 255 255 0 255
0.481974 -0.361758 3.867874 255 255 0 255
0.730513 -0.581557 3.655350 255 255 0 255
0.893473 0.339803 3.455993 255 255 0 255
0.919524 -0.725324 3.346241 255 255 0 255
-0.930697 -0.523596 2.586687 255 255 0 255
-1.000324 -1.024817 2.947817 255 255 0 255
-0.705238 -0.337690 3.702272 255 255 0 255
-0.367938 -0.435202 3.917870 255 255 0 255
0.098594 -0.711411 3.946588 255 255 0 255
0.995977 -0.802250 3.064227 255 255 0 255
-0.136771 -0.438756 1.963230 255 255 0 255
-0.898060 -0.788541 3.373722 255 255 0 255
0.345733 -0.567630 1.983259 255 255 0 255
-0.522707 -0.149818 2.146161 255 255 0 255
-0.809888 -0.775210 2.287232 255 255 0 255
-0.758939 -0.079818 2.343499 255 255 0 255
-0.609325 -0.959054 3.687468 255 255 0 255
0.818477 -0.924604 2.246213 255 255 0 255
0.919285 -0.577129 2.553008 255 255 0 255
0.027539 -0.711464 1.871410 255 255 0 255
-0.580526 -0.660954 2.080697 255 255 0 255
-0.193009 -1.091532 3.838228 255 255 0 255
0.161783 -1.505729 3.708437 255 255 0 255
0.387493 -0.949263 3.815450 255 255 0 255
0.622529 -1.316315 3.560827 255 255 0 255
0.622245 -0.805459 2.061725 255 255 0 255
0.852078 -1.643201 3.140535 255 255 0 255
-0.907899 -1.190462 2.290536 255 255 0 255
-0.978393 -1.689729 2.253870 255 255 0 255
-0.906286 -1.643728 3.041060 255 255 0 255
-0.308536 -1.613498 3.616587 255 255 0 255
0.580863 -1.954052 3.293922 255 255 0 255
0.975449 -1.845980 2.685093 255 255 0 255
0.974342 -1.684814 2.217073 255 255 0 255
0.985644 -0.417616 2.807433 255 255 0 255
-1.001181 -2.021931 2.339839 255 255 0 255
0.249791 -2.118045 3.369839 255 255 0 255
0.605959 -1.238426 1.814580 255 255 0 255
0.279387 -1.035986 1.759411 255 255 0 255
-0.611662 -1.115660 1.905977 255 255 0 255
-0.847115 -1.488347 1.972022 255 255 0 255
-0.689757 -2.101116 3.090993 255 255 0 255
-0.628771 -1.473652 3.486967 255 255 0 255
-0.485129 -2.084039 3.275705 255 255 0 255
-0.191981 -2.025490 3.438988 255 255 0 255
0.895174 -1.693019 1.913912 255 255 0 255
-0.399860 -1.256828 1.653486 255 255 0 255
-0.297300 -0.870212 1.853843 255 255 0 255
-0.822272 -2.208903 2.822680 255 255 0 255
0.031562 -2.454910 3.165160 255 255 0 255
0.495247 -1.472810 1.549435 255 255 0 255
0.385108 -2.775749 2.794307 255 255 0 255
0.644745 -2.673567 2.668273 255 255 0 255
0.875617 -2.355146 2.598288 255 255 0 255
0.739560 -1.682950 1.599975 255 255 0 255
0.346804 -1.530883 1.391484 255 255 0 255
0.026069 -1.480647 1.347038 255 255 0 255
-0.024170 -1.131193 1.649640 255 255 0 255
-0.704320 -1.568856 1.668133 255 255 0 255
-0.879445 -1.940829 1.601728 255 255 0 255
-0.916432 -2.552837 2.273752 255 255 0 255
-0.341643 -2.495991 3.063655 255 255 0 255
-0.024419 -2.896954 2.778651 255 255 0 255
-0.513747 -2.807610 2.665079 255 255 0 255
-0.475555 -1.502645 1.488753 255 255 0 255
-0.958416 -2.788387 1.809503 255 255 0 255
-0.730827 -2.775152 2.436866 255 255 0 255
0.801344 -3.048725 1.950026 255 255 0 255
0.926728 -2.832022 1.868730 255 255 0 255
-0.165941 -3.212402 2.373544 255 255 0 255
0.140265 -3.368592 2.156407 255 255 0 255
0.998876 -2.677100 1.616229 255 255 0 255
0.996370 -2.805010 0.899377 255 255 0 255
0.913073 -2.323349 1.134135 255 255 0 255
0.697779 -1.965510 1.164361 255 255 0 255
-0.354732 -1.635398 1.256804 255 255 0 255
-0.660248 -1.914635 1.183682 255 255 0 255
-0.771659 -3.123999 1.890243 255 255 0 255
-0.455852 -3.225572 2.193358 255 255 0 255
0.053786 -1.805295 0.865434 255 255 0 255
0.411972 -1.874871 0.925450 255 255 0 255
-0.290025 -1.875312 0.812633 255 255 0 255
-0.535569 -2.008305 0.797906 255 255 0 255
-0.870471 -2.302800 0.996079 255 255 0 255
-0.979786 -2.442305 1.330179 255 255 0 255
-0.519367 -3.446861 1.756263 255 255 0 255
-0.110833 -3.572979 1.800404 255 255 0 255
0.952412 -3.172006 1.031149 255 255 0 255
0.700854 -2.179911 0.675837 255 255 0 255
0.096073 -3.726172 1.466381 255 255 0 255
0.399720 -3.737399 1.211609 255 255 0 255
0.382759 -3.382736 2.015489 255 255 0 255
0.583357 -3.297045 1.939561 255 255 0 255
0.623965 -3.642581 1.065509 255 255 0 255
0.807915 -3.500556 0.874547 255 255 0 255
-0.654733 -2.197546 0.469564 255 255 0 255
-0.935272 -3.165684 1.158043 255 255 0 255
-0.795619 -3.428901 1.154336 255 255 0 255
-0.166309 -3.803408 1.223662 255 255 0 255
0.976826 -2.794775 0.246055 255 255 0 255
0.289456 -1.993892 0.431314 255 255 0 255
0.236338 -3.924422 0.705043 255 255 0 255
0.876722 -2.479161 0.417523 255 255 0 255
-0.269141 -2.010343 0.301178 255 255 0 255
-0.865726 -2.452550 0.431589 255 255 0 255
-0.986367 -2.764028 0.570472 255 255 0 255
-0.641930 -3.738050 0.559514 255 255 0 255
-0.519989 -3.664351 1.228616 255 255 0 255
-0.391537 -3.858056 0.738651 255 255 0 255
0.913548 -3.415475 0.227271 255 255 0 255
1.001941 -3.093720 0.035870 255 255 0 255
0.055481 -1.991834 0.203664 255 255 0 255
-0.960613 -3.325760 -0.137166 255 255 0 255
-0.999722 -3.022462 0.729203 255 255 0 255
-0.892980 -3.464156 0.332667 255 255 0 255
0.584804 -3.829148 0.032870 255 255 0 255
0.874088 -2.502506 -0.272987 255 255 0 255
0.800883 -3.610210 -0.039436 255 255 0 255
0.724382 -2.307523 0.063757 255 255 0 255
0.417103 -2.088073 -0.129870 255 255 0 255
-0.934873 -2.620400 -0.163934 255 255 0 255
-0.449416 -3.900974 -0.001016 255 255 0 255
-0.166783 -3.965425 0.477114 255 255 0 255
0.099138 -4.003708 0.004868 255 255 0 255
0.093390 -1.992007 -0.176082 255 255 0 255
-0.510901 -2.129434 -0.232612 255 255 0 255
-0.733646 -2.311273 -0.168456 255 255 0 255
-0.724462 -3.690091 -0.357958 255 255 0 255
-0.154698 -3.988516 -0.239467 255 255 0 255
0.308245 -3.902215 -0.685761 255 255 0 255
0.330106 -3.954176 -0.018418 255 255 0 255
0.716117 -3.617072 -0.831771 255 255 0 255
0.903111 -3.402537 -0.587408 255 255 0 255
0.642062 -2.172549 -0.531711 255 255 0 255
-0.401684 -3.865647 -0.695808 255 255 0 255
0.002741 -3.904688 -0.920529 255 255 0 255
0.507365 -3.729875 -1.041962 255 255 0 255
0.983955 -2.554219 -1.229257 255 255 0 255
0.044233 -1.925187 -0.561584 255 255 0 255
-0.280704 -2.032455 -0.157886 255 255 0 255
-0.977313 -2.548413 -1.085883 255 255 0 255
-0.997894 -2.958346 -0.977251 255 255 0 255
0.867398 -2.292960 -0.998607 255 255 0 255
-0.210713 -1.950938 -0.511558 255 255 0 255
-0.778623 -2.282617 -0.628505 255 255 0 255
-0.836664 -3.354491 -1.200288 255 255 0 255
-0.630522 -3.615303 -1.136638 255 255 0 255
0.214764 -3.672548 -1.562806 255 255 0 255
-0.212051 -3.756007 -1.350389 255 255 0 255
0.701842 -3.316630 -1.703110 255 255 0 255
0.976110 -3.051391 -1.101168 255 255 0 255
0.997917 -2.676165 -1.673690 255 255 0 255
0.635514 -1.992419 -0.992979 255 255 0 255
-0.462361 -3.521768 -1.676792 255 255 0 255
0.405794 -3.361652 -2.043894 255 255 0 255
0.026622 -1.767008 -0.926228 255 255 0 255
0.321042 -1.948626 -0.630691 255 255 0 255
-0.513437 -2.020210 -0.717932 255 255 0 255
-0.702670 -1.982950 -1.142524 255 255 0 255
-0.909673 -2.157479 -1.423626 255 255 0 255
-0.742355 -3.077545 -2.038846 255 255 0 255
0.856321 -3.297258 -1.277199 255 255 0 255
0.912214 -1.947269 -1.708996 255 255 0 255
-0.516659 -1.770863 -1.210605 255 255 0 255
-0.952986 -2.991020 -1.487479 255 255 0 255
-0.126129 -3.416019 -2.088780 255 255 0 255
0.469081 -3.101897 -2.354283 255 255 0 255
0.894349 -2.694068 -2.179590 255 255 0 255
0.489651 -1.626913 -1.377872 255 255 0 255
0.308749 -1.731223 -1.101919 255 255 0 255
-0.031583 -3.165675 -2.455166 255 255 0 255
0.683593 -1.600191 -1.616977 255 255 0 255
-0.272706 -1.818227 -0.927915 255 255 0 255
-0.314103 -1.467710 -1.443998 255 255 0 255
-0.870750 -1.827357 -1.722446 255 255 0 255
-0.984810 -1.930772 -2.062536 255 255 0 255
-0.896279 -2.552353 -2.337404 255 255 0 255
0.254089 -2.865079 -2.759995 255 255 0 255
-0.747370 -1.698994 -1.603607 255 255 0 255
-0.997723 -2.308925 -2.103412 255 255 0 255
-0.396642 -2.876117 -2.675341 255 255 0 255
-0.380948 -3.191123 -2.303205 255 255 0 255
0.972096 -1.610630 -2.243809 255 255 0 255
0.121480 -1.370062 -1.465796 255 255 0 255
-0.048051 -1.620543 -1.173829 255 255 0 255
-0.123516 -1.294150 -1.542709 255 255 0 255
-0.545603 -1.388036 -1.663397 255 255 0 255
-0.728022 -2.541777 -2.687113 255 255 0 255
0.701836 -2.733442 -2.542022 255 255 0 255
0.847060 -1.455451 -1.997522 255 255 0 255
-0.995619 -1.936429 -2.531065 255 255 0 255
-0.560351 -2.335637 -3.049598 255 255 0 255
-0.112544 -2.678228 -2.979434 255 255 0 255
0.063221 -2.450036 -3.165211 255 255 0 255
0.395790 -2.410616 -3.102691 255 255 0 255
0.906113 -1.802746 -2.937345 255 255 0 255
0.975482 -2.106918 -2.465251 255 255 0 255
0.997415 -1.108000 -2.933730 255 255 0 255
0.145553 -1.032751 -1.724438 255 255 0 255
-0.724250 -1.267875 -1.930319 255 255 0 255
-0.884256 -1.282135 -2.185557 255 255 0 255
-0.990211 -1.307097 -2.538027 255 255 0 255
-0.767019 -1.844678 -3.161955 255 255 0 255
-0.385471 -2.185458 -3.265883 255 255 0 255
0.214580 -1.970271 -3.467115 255 255 0 255
0.508646 -1.759968 -3.449994 255 255 0 255
0.735256 -2.073466 -3.057216 255 255 0 255
0.690613 -1.050049 -2.017134 255 255 0 255
0.417355 -1.101711 -1.779557 255 255 0 255
-0.449842 -0.971394 -1.861627 255 255 0 255
-0.929202 -1.437033 -3.066525 255 255 0 255
-0.179699 -1.895300 -3.517626 255 255 0 255
0.889952 -0.958171 -2.355663 255 255 0 255
0.083480 -0.713108 -1.864115 255 255 0 255
0.017772 -1.639212 -3.655122 255 255 0 255
0.784622 -1.299672 -3.398321 255 255 0 255
0.938492 -0.567985 -2.596171 255 255 0 255
-0.944014 -0.636740 -2.592173 255 255 0 255
-0.799160 -1.255525 -3.387516 255 255 0 255
0.284983 -1.232547 -3.773562 255 255 0 255
-0.308846 -0.638093 -1.945438 255 255 0 255
-0.662740 -1.075394 -3.606187 255 255 0 255
-0.471940 -1.647879 -3.522988 255 255 0 255
-0.176701 -1.256473 -3.789699 255 255 0 255
0.488915 -0.814429 -3.802611 255 255 0 255
0.789441 -0.397899 -2.360690 255 255 0 255
-0.083673 -0.408637 -1.965192 255 255 0 255
-0.355592 -0.338282 -2.036767 255 255 0 255
-0.662879 -0.705116 -2.140406 255 255 0 255
-0.421890 -0.981425 -3.787960 255 255 0 255
0.011928 -0.891966 -3.906298 255 255 0 255
-0.892835 -0.611242 -3.414111 255 255 0 255
0.107705 -0.303106 -3.998271 255 255 0 255
0.292945 -0.202113 -2.031980 255 255 0 255
0.533856 -0.729827 -2.021762 255 255 0 255
-0.778186 -0.662269 -2.285265 255 255 0 255
-0.569067 -0.506391 -3.795965 255 255 0 255
-0.326021 -0.463510 -3.928719 255 255 0 255
0.725942 -0.660495 -3.640564 255 255 0 255
0.594390 -0.409450 -2.156124 255 255 0 255
-0.258118 0.155391 -3.972622 255 255 0 255
-0.841474 2.385362 -0.580238 255 255 0 255
3 0 1 2
3 3 4 5
3 6 2 7
3 6 0 2
3 8 3 1
3 9 10 11
3 12 13 14
3 15 16 17
3 18 19 20
3 21 9 22
3 21 10 9
3 23 24 13
3 25 4 3
3 4 26 27
3 28 29 30
3 31 32 26
3 33 16 15
3 34 29 28
3 29 35 19
3 36 12 37
3 12 23 13
3 38 8 6
3 39 26 4
3 40 32 31
3 40 15 32
3 15 40 33
3 41 19 35
3 19 42 22
3 10 43 37
3 36 23 12
3 44 45 23
3 26 39 31
3 36 46 23
3 47 38 45
3 48 25 49
3 44 50 45
3 40 51 33
3 52 53 34
3 53 41 34
3 42 54 21
3 54 55 10
3 56 43 10
3 46 57 44
3 57 50 44
3 58 47 50
3 59 48 60
3 61 4 62
3 61 39 4
3 39 63 31
3 39 64 63
3 65 41 53
3 36 66 46
3 67 58 68
3 69 53 52
3 70 59 58
3 71 51 72
3 51 71 52
3 59 73 74
3 75 72 63
3 75 71 72
3 69 76 53
3 77 64 61
3 77 75 64
3 65 78 79
3 80 81 54
3 81 55 54
3 82 83 66
3 84 85 67
3 86 70 87
3 70 88 73
3 80 79 78
3 86 88 70
3 89 90 76
3 81 91 55
3 85 92 87
3 93 87 92
3 93 86 87
3 94 61 95
3 96 75 77
3 75 97 71
3 71 98 69
3 99 100 85
3 101 102 89
3 103 99 83
3 104 93 92
3 105 94 95
3 106 83 91
3 107 108 93
3 109 77 61
3 110 97 96
3 97 111 98
3 112 89 98
3 113 104 100
3 104 114 93
3 109 115 77
3 116 117 101
3 118 94 119
3 120 114 113
3 114 121 107
3 107 122 119
3 119 122 118
3 123 110 124
3 110 125 111
3 126 91 81
3 127 128 103
3 129 113 130
3 131 111 125
3 112 132 116
3 133 127 106
3 79 42 41
3 79 41 65
3 134 122 121
3 135 118 122
3 136 131 125
3 137 138 132
3 139 91 126
3 140 120 129
3 134 141 122
3 109 142 115
3 143 128 127
3 140 144 121
3 144 134 121
3 145 126 146
3 143 147 129
3 147 140 129
3 135 148 149
3 136 150 151
3 152 146 137
3 153 154 133
3 154 155 133
3 156 135 141
3 157 136 125
3 152 145 146
3 143 158 147
3 159 144 147
3 160 144 159
3 161 152 137
3 155 158 143
3 162 147 158
3 162 159 147
3 163 156 160
3 148 164 149
3 165 150 157
3 162 166 159
3 167 168 169
3 139 154 153
3 155 170 158
3 158 170 162
3 166 171 160
3 163 172 156
3 173 174 175
3 175 174 157
3 176 152 161
3 177 145 152
3 178 154 139
3 179 170 155
3 180 166 181
3 156 172 148
3 182 164 148
3 183 173 142
3 184 167 165
3 185 163 171
3 157 186 165
3 181 187 180
3 180 187 171
3 184 188 167
3 189 161 167
3 161 190 176
3 191 177 176
3 192 185 193
3 194 172 185
3 194 185 192
3 194 195 172
3 172 195 182
3 195 196 182
3 197 190 189
3 198 199 179
3 200 201 187
3 202 192 201
3 203 204 186
3 205 154 178
3 206 198 154
3 206 199 198
3 192 207 194
3 208 203 183
3 209 204 203
3 197 210 190
3 211 212 201
3 201 213 202
3 213 214 202
3 194 215 195
3 216 208 183
3 208 217 203
3 217 209 203
3 204 218 219
3 220 197 188
3 221 207 214
3 222 216 196
3 223 215 207
3 195 224 196
3 225 220 218
3 220 226 210
3 227 228 199
3 229 212 228
3 212 230 213
3 230 214 213
3 231 221 214
3 232 215 223
3 216 217 208
3 233 234 226
3 235 205 236
3 217 237 238
3 238 218 209
3 239 206 205
3 240 227 206
3 241 230 229
3 221 242 223
3 237 217 216
3 238 243 225
3 244 205 235
3 245 227 240
3 245 241 227
3 246 247 241
3 248 232 242
3 249 250 251
3 239 240 206
3 252 253 247
3 253 254 242
3 255 238 237
3 255 256 238
3 243 257 225
3 244 239 205
3 242 258 248
3 259 260 248
3 261 222 260
3 235 262 244
3 244 263 239
3 264 246 245
3 265 252 246
3 266 258 254
3 261 267 222
3 268 249 257
3 269 264 240
3 270 243 256
3 271 272 273
3 263 269 239
3 274 265 264
3 265 266 254
3 275 255 276
3 257 277 268
3 271 278 272
3 272 262 273
3 279 266 265
3 279 280 266
3 266 280 281
3 282 259 281
3 255 283 256
3 280 282 281
3 284 261 282
3 261 284 267
3 272 285 262
3 262 286 244
3 286 263 244
3 269 287 274
3 274 288 279
3 289 282 280
3 284 290 267
3 291 276 292
3 276 291 275
3 286 293 263
3 294 289 280
3 267 291 292
3 295 283 275
3 295 296 283
3 297 298 272
3 287 299 300
3 301 288 300
3 288 302 280
3 291 303 275
3 277 304 305
3 304 297 305
3 287 306 299
3 307 294 302
3 295 308 296
3 309 289 294
3 310 311 289
3 312 295 303
3 308 313 296
3 296 314 315
3 316 298 297
3 298 317 285
3 287 318 306
3 299 319 301
3 320 309 307
3 295 312 308
3 321 319 299
3 320 307 319
3 322 316 304
3 317 298 316
3 323 318 293
3 306 324 321
3 321 320 319
3 325 311 310
3 326 290 311
3 327 320 321
3 328 309 320
3 325 326 311
3 326 329 290
3 329 330 291
3 331 312 303
3 332 308 312
3 333 334 322
3 335 324 318
3 336 321 324
3 321 336 327
3 327 328 320
3 330 331 291
3 313 337 314
3 323 335 318
3 338 337 313
3 337 339 314
3 339 333 314
3 333 340 334
3 341 342 317
3 335 343 336
3 344 327 336
3 344 328 327
3 345 329 326
3 332 346 338
3 347 348 349
3 348 350 349
3 351 325 350
3 352 345 325
3 353 341 334
3 354 355 335
3 355 343 335
3 356 344 343
3 357 331 330
3 358 337 338
3 359 348 347
3 331 360 346
3 361 339 337
3 361 340 339
3 362 363 341
3 364 365 355
3 366 356 365
3 359 351 348
3 367 345 352
3 345 368 329
3 368 330 329
3 358 369 361
3 370 354 371
3 354 372 355
3 372 364 355
3 359 373 351
3 351 373 352
3 357 374 360
3 375 367 352
3 376 377 346
3 377 358 346
3 377 369 358
3 362 378 363
3 379 366 364
3 380 381 359
3 382 369 377
3 369 382 361
3 383 353 361
3 353 384 362
3 385 364 372
3 386 381 380
3 387 388 381
3 387 373 388
3 373 389 375
3 390 367 375
3 330 368 357
3 376 391 377
3 385 392 379
3 392 386 379
3 386 393 381
3 394 373 387
3 368 395 357
3 396 397 382
3 398 399 371
3 371 399 370
3 400 391 374
3 396 401 397
3 402 398 378
3 398 371 378
3 370 403 385
3 404 392 385
3 393 405 387
3 405 394 387
3 404 406 392
3 407 389 394
3 408 409 368
3 400 410 391
3 404 411 406
3 412 394 405
3 412 407 394
3 413 396 414
3 415 416 402
3 402 416 417
3 402 417 398
3 403 418 404
3 419 409 408
3 420 410 400
3 421 416 415
3 418 403 422
3 411 423 406
3 406 423 405
3 424 407 412
3 425 409 419
3 426 427 410
3 428 412 423
3 420 429 410
3 429 426 410
3 430 431 421
3 416 432 417
3 433 398 417
3 422 434 418
3 435 412 428
3 421 436 416
3 433 437 398
3 418 438 439
3 409 440 395
3 427 441 442
3 443 431 442
3 444 421 431
3 444 436 421
3 445 438 418
3 438 428 439
3 435 446 424
3 447 429 420
3 437 448 434
3 445 449 438
3 450 451 435
3 435 452 446
3 453 425 446
3 453 454 425
3 455 409 454
3 456 441 426
3 444 457 436
3 457 458 436
3 458 432 436
3 459 448 433
3 434 460 445
3 461 450 449
3 451 462 452
3 463 464 452
3 465 429 447
3 465 466 429
3 467 431 443
3 431 467 444
3 468 460 448
3 461 469 450
3 450 469 451
3 27 440 409
3 470 447 440
3 456 471 443
3 471 467 443
3 467 457 444
3 472 462 469
3 463 473 464
3 473 453 464
3 455 27 409
3 474 470 440
3 458 475 433
3 475 459 433
3 468 476 460
3 477 462 472
3 477 463 462
3 5 455 453
3 27 474 440
3 466 471 456
3 478 467 471
3 11 468 448
3 460 479 480
3 481 472 469
3 482 473 463
3 483 465 470
3 484 478 471
3 478 485 467
3 485 486 467
3 487 481 480
3 481 488 477
3 474 483 470
3 475 9 459
3 9 448 459
3 468 489 476
3 490 477 488
3 491 471 492
3 20 475 493
3 479 494 487
3 495 481 487
3 495 488 481
3 4 27 455
3 485 18 486
3 18 493 486
3 14 479 489
3 495 487 494
3 482 1 496
3 497 17 491
3 30 485 484
3 20 493 18
3 474 32 483
3 32 17 483
3 28 484 491
3 28 30 484
3 30 29 485
3 29 18 485
3 22 475 20
3 11 37 489
3 13 495 494
3 495 498 490
3 490 7 2
3 26 32 474
3 17 16 491
3 16 28 491
3 498 7 490
3 1 0 8
3 37 12 14
3 13 24 498
3 498 24 7
3 0 6 8
3 8 25 3
3 32 15 17
3 18 29 19
3 19 22 20
3 11 10 37
3 45 6 7
3 24 45 7
3 6 45 38
3 8 49 25
3 16 33 28
3 34 35 29
3 24 23 45
3 8 38 49
3 25 62 4
3 28 33 34
3 37 43 36
3 41 42 19
3 42 21 22
3 23 46 44
3 50 47 45
3 47 60 38
3 38 60 49
3 48 62 25
3 33 52 34
3 35 34 41
3 21 54 10
3 49 60 48
3 48 74 62
3 31 72 40
3 72 51 40
3 51 52 33
3 43 82 36
3 50 68 58
3 58 60 47
3 31 63 72
3 57 68 50
3 58 59 60
3 48 59 74
3 74 61 62
3 169 150 165
3 169 165 167
3 42 79 54
3 55 56 10
3 82 66 36
3 66 57 46
3 61 64 39
3 43 56 82
3 57 67 68
3 74 95 61
3 52 71 69
3 66 84 57
3 84 67 57
3 67 87 58
3 58 87 70
3 70 73 59
3 74 73 95
3 64 75 63
3 53 76 90
3 90 65 53
3 55 91 56
3 66 99 84
3 90 78 65
3 79 80 54
3 56 91 82
3 83 99 66
3 67 85 87
3 73 88 95
3 91 83 82
3 84 99 85
3 88 105 95
3 98 76 69
3 89 102 90
3 96 97 75
3 97 98 71
3 76 98 89
3 102 78 90
3 85 100 92
3 88 86 108
3 88 108 105
3 94 109 61
3 77 115 96
3 102 117 78
3 117 499 78
3 78 499 80
3 103 100 99
3 100 104 92
3 86 93 108
3 108 119 105
3 80 499 81
3 106 103 83
3 119 94 105
3 110 111 97
3 111 112 98
3 89 112 101
3 101 117 102
3 100 103 130
3 130 113 100
3 93 114 107
3 107 119 108
3 149 109 94
3 113 114 104
3 118 149 94
3 96 115 124
3 124 110 96
3 101 112 116
3 116 138 117
3 117 138 499
3 499 126 81
3 91 153 106
3 103 128 130
3 114 120 121
3 107 121 122
3 111 131 112
3 499 138 146
3 106 127 103
3 128 129 130
3 123 125 110
3 132 138 116
3 499 146 126
3 153 133 106
3 113 129 120
3 140 121 120
3 112 131 132
3 137 146 138
3 91 139 153
3 122 141 135
3 118 135 149
3 149 164 109
3 115 142 124
3 131 151 132
3 133 143 127
3 143 129 128
3 144 141 134
3 124 173 123
3 173 125 123
3 136 151 131
3 151 169 132
3 132 169 137
3 145 139 126
3 133 155 143
3 164 142 109
3 142 173 124
3 173 175 125
3 140 147 144
3 144 160 141
3 160 156 141
3 175 157 125
3 157 150 136
3 135 156 148
3 151 150 169
3 169 168 137
3 166 160 159
3 168 161 137
3 193 187 201
3 193 201 192
3 145 178 139
3 154 198 155
3 162 170 181
3 162 181 166
3 180 171 166
3 171 163 160
3 176 177 152
3 198 179 155
3 148 172 182
3 164 196 142
3 173 183 174
3 168 167 161
3 177 178 145
3 187 193 171
3 193 185 171
3 163 185 172
3 164 182 196
3 196 183 142
3 157 174 186
3 186 184 165
3 179 200 170
3 170 200 181
3 188 189 167
3 189 190 161
3 190 191 176
3 181 200 187
3 221 231 253
3 221 253 242
3 183 203 174
3 174 203 186
3 186 219 184
3 184 219 188
3 177 234 178
3 179 211 200
3 200 211 201
3 196 216 183
3 186 204 219
3 177 191 234
3 234 236 178
3 178 236 205
3 154 205 206
3 199 228 179
3 228 211 179
3 192 202 207
3 188 219 218
3 189 188 197
3 190 210 191
3 228 212 211
3 201 212 213
3 202 214 207
3 207 215 194
3 218 220 188
3 210 234 191
3 215 224 195
3 197 220 210
3 221 223 207
3 204 209 218
3 226 234 210
3 234 235 236
3 206 227 199
3 227 229 228
3 229 230 212
3 232 224 215
3 224 222 196
3 217 238 209
3 225 251 220
3 234 233 235
3 214 230 231
3 232 260 224
3 218 238 225
3 220 251 250
3 250 226 220
3 227 241 229
3 241 247 230
3 247 231 230
3 333 304 315
3 333 315 314
3 242 232 223
3 224 260 222
3 222 292 216
3 250 233 226
3 247 253 231
3 248 260 232
3 225 257 251
3 251 257 249
3 250 271 233
3 271 273 233
3 233 273 235
3 245 246 241
3 246 252 247
3 216 292 237
3 238 256 243
3 250 249 271
3 252 254 253
3 254 258 242
3 248 258 259
3 259 261 260
3 292 276 237
3 276 255 237
3 235 273 262
3 240 264 245
3 246 264 265
3 265 254 252
3 239 269 240
3 258 266 281
3 258 281 259
3 222 267 292
3 270 257 243
3 264 269 274
3 270 277 257
3 271 249 278
3 274 279 265
3 259 282 261
3 275 283 255
3 283 270 256
3 268 305 249
3 249 305 278
3 268 277 305
3 274 287 300
3 274 300 288
3 288 280 279
3 283 296 270
3 270 296 277
3 305 297 278
3 278 297 272
3 262 285 286
3 263 287 269
3 280 302 294
3 282 289 284
3 296 315 277
3 272 298 285
3 299 301 300
3 288 301 302
3 275 303 295
3 277 315 304
3 263 293 287
3 284 289 311
3 284 311 290
3 290 329 267
3 285 317 286
3 301 319 302
3 319 307 302
3 294 307 309
3 309 310 289
3 313 314 296
3 304 316 297
3 267 329 291
3 350 310 309
3 350 309 349
3 286 342 293
3 293 318 287
3 299 306 321
3 304 333 322
3 318 324 306
3 322 334 316
3 316 334 317
3 342 371 293
3 309 328 349
3 414 391 410
3 414 410 427
3 310 350 325
3 291 331 303
3 308 332 338
3 308 338 313
3 317 342 286
3 371 323 293
3 335 336 324
3 312 331 332
3 333 339 340
3 317 334 341
3 336 343 344
3 344 347 328
3 328 347 349
3 325 345 326
3 323 354 335
3 348 351 350
3 325 351 352
3 331 346 332
3 340 353 334
3 371 354 323
3 355 365 343
3 365 356 343
3 356 347 344
3 357 360 331
3 342 341 363
3 342 363 371
3 347 356 359
3 338 346 358
3 337 358 361
3 353 362 341
3 340 361 353
3 354 370 372
3 364 366 365
3 366 380 356
3 380 359 356
3 360 376 346
3 359 381 388
3 359 388 373
3 373 375 352
3 345 367 368
3 366 379 380
3 374 376 360
3 361 382 397
3 397 383 361
3 353 383 384
3 362 384 378
3 378 371 363
3 385 379 364
3 379 386 380
3 367 390 368
3 370 385 372
3 393 387 381
3 389 390 375
3 376 374 391
3 373 394 389
3 390 408 368
3 357 395 374
3 382 377 396
3 401 383 397
3 383 402 384
3 384 402 378
3 392 393 386
3 389 419 390
3 391 414 377
3 377 414 396
3 383 401 415
3 370 399 422
3 422 403 370
3 403 404 385
3 392 406 393
3 419 408 390
3 374 395 400
3 415 402 383
3 389 407 419
3 396 413 401
3 413 430 401
3 430 415 401
3 393 406 405
3 368 409 395
3 480 461 449
3 480 449 460
3 427 413 414
3 404 418 411
3 415 430 421
3 437 422 399
3 405 423 412
3 407 425 419
3 413 442 430
3 398 437 399
3 418 439 411
3 411 439 423
3 407 424 446
3 446 425 407
3 427 442 413
3 442 431 430
3 436 432 416
3 423 439 428
3 435 424 412
3 395 420 400
3 428 450 435
3 409 425 454
3 440 420 395
3 427 426 441
3 442 441 443
3 437 434 422
3 434 445 418
3 428 438 450
3 417 432 433
3 435 451 452
3 446 452 464
3 446 464 453
3 426 429 466
3 433 448 437
3 449 450 438
3 440 447 420
3 426 466 456
3 456 443 441
3 432 458 433
3 448 460 434
3 460 449 445
3 462 463 452
3 469 462 451
3 453 455 454
3 480 469 461
3 470 465 447
3 492 466 465
3 467 486 457
3 457 486 493
3 457 493 458
3 466 492 471
3 493 475 458
3 476 479 460
3 480 481 469
3 481 477 472
3 463 477 482
3 473 5 453
3 465 483 492
3 480 479 487
3 482 496 473
3 471 491 484
3 11 489 468
3 476 489 479
3 477 490 482
3 473 496 5
3 483 497 492
3 492 497 491
3 478 484 485
3 9 11 448
3 1 5 496
3 479 14 494
3 495 490 488
3 490 2 482
3 482 2 1
3 474 27 26
3 497 483 17
3 5 1 3
3 5 4 455
3 475 22 9
3 489 37 14
3 494 14 13
3 13 498 495
