ply
format ascii 1.0
comment Created by Blender 2.80 (sub 75) - www.blender.org, source file: 'scene.blend'
element vertex 42
property float x
property float y
property float z
property uchar red
property uchar green
property uchar blue
property uchar alpha
element face 80
property list uchar uint vertex_indices
end_header
5.441109 -2.051023 1.246628 255 240 219 255
5.866431 -2.360034 1.395974 255 90 0 255
5.278653 -2.551018 1.395974 255 90 2 255
6.164716 -2.576748 1.799409 255 90 0 255
6.291757 -2.051023 1.720892 255 90 0 255
4.915379 -2.051023 1.395977 255 90 0 255
5.278653 -1.551028 1.395974 255 90 0 255
5.866431 -1.742011 1.395974 255 90 0 255
6.392167 -2.360035 2.246628 255 90 0 255
5.164721 -2.901672 1.799408 255 222 200 255
5.703978 -2.860034 1.720891 255 90 0 255
5.441109 -3.051023 2.246628 255 90 1 255
4.546682 -2.051023 1.799413 135 83 242 255
4.752919 -2.551020 1.720892 254 89 21 255
4.490051 -2.360035 2.246628 55 57 252 255
5.164721 -1.200374 1.799408 255 90 0 255
4.752919 -1.551026 1.720892 255 90 0 255
4.853323 -1.242006 2.246628 255 90 0 255
6.164716 -1.525297 1.799409 255 90 0 255
5.703978 -1.242011 1.720891 255 90 0 255
6.028894 -1.242006 2.246628 255 90 0 255
6.028894 -2.860039 2.246628 255 91 4 255
4.853323 -2.860039 2.246628 212 255 0 255
4.490051 -1.742010 2.246628 160 252 237 255
5.441109 -1.051023 2.246628 255 91 5 255
6.392167 -1.742010 2.246628 255 90 0 255
5.717497 -2.901672 2.693848 255 90 0 255
6.129298 -2.551020 2.772365 255 90 0 255
5.603564 -2.551018 3.097283 255 90 0 255
4.717502 -2.576748 2.693848 68 253 50 255
5.178240 -2.860034 2.772366 255 90 0 255
5.015786 -2.360034 3.097282 139 83 239 255
4.717502 -1.525297 2.693848 255 90 0 255
4.590461 -2.051023 2.772364 255 48 215 255
5.015786 -1.742011 3.097282 255 90 0 255
5.717497 -1.200374 2.693848 255 90 1 255
5.178240 -1.242011 2.772366 255 90 1 255
5.603564 -1.551028 3.097283 255 90 0 255
6.335535 -2.051023 2.693844 255 90 0 255
6.129298 -1.551026 2.772365 255 90 0 255
5.966838 -2.051023 3.097280 255 90 0 255
5.441109 -2.051023 3.246628 255 90 0 255
3 0 1 2
3 3 1 4
3 0 2 5
3 0 5 6
3 0 6 7
3 3 4 8
3 9 10 11
3 12 13 14
3 15 16 17
3 18 19 20
3 3 8 21
3 9 11 22
3 12 14 23
3 15 17 24
3 18 20 25
3 26 27 28
3 29 30 31
3 32 33 34
3 35 36 37
3 38 39 40
3 40 37 41
3 40 39 37
3 39 35 37
3 37 34 41
3 37 36 34
3 36 32 34
3 34 31 41
3 34 33 31
3 33 29 31
3 31 28 41
3 31 30 28
3 30 26 28
3 28 40 41
3 28 27 40
3 27 38 40
3 25 39 38
3 25 20 39
3 20 35 39
3 24 36 35
3 24 17 36
3 17 32 36
3 23 33 32
3 23 14 33
3 14 29 33
3 22 30 29
3 22 11 30
3 11 26 30
3 21 27 26
3 21 8 27
3 8 38 27
3 20 24 35
3 20 19 24
3 19 15 24
3 17 23 32
3 17 16 23
3 16 12 23
3 14 22 29
3 14 13 22
3 13 9 22
3 11 21 26
3 11 10 21
3 10 3 21
3 8 25 38
3 8 4 25
3 4 18 25
3 7 19 18
3 7 6 19
3 6 15 19
3 6 16 15
3 6 5 16
3 5 12 16
3 5 13 12
3 5 2 13
3 2 9 13
3 4 7 18
3 4 1 7
3 1 0 7
3 2 10 9
3 2 1 10
3 1 3 10
