ply
format ascii 1.0
comment Created by Blender 2.80 (sub 75) - www.blender.org, source file: 'scene.blend'
element vertex 579
property float x
property float y
property float z
property uchar red
property uchar green
property uchar blue
property uchar alpha
element face 1153
property list uchar uint vertex_indices
end_header
5.000000 0.000000 -5.000000 76 78 255 255
10.000000 0.000000 0.000000 255 132 130 255
5.000000 5.000000 0.000000 92 255 92 255
4.945761 0.226572 0.693072 255 30 8 255
4.964258 0.385358 0.824259 255 29 16 255
4.973499 0.226572 0.819474 255 29 1 255
4.925773 0.373414 0.947236 255 29 36 255
4.934320 0.226572 0.942810 255 29 0 255
4.831124 0.357098 1.033966 255 30 63 255
4.838721 0.226572 1.030032 255 29 0 255
4.712319 0.226572 1.057770 255 29 23 255
4.583032 0.328839 1.021673 252 47 101 255
4.588984 0.226572 1.018591 255 31 39 255
4.496063 0.324467 0.925943 248 84 150 255
4.501761 0.226572 0.922992 250 65 148 255
4.474023 0.226572 0.796590 253 66 142 255
4.468071 0.328839 0.799673 252 86 144 255
4.513203 0.226572 0.673254 255 66 140 255
4.506556 0.340782 0.676697 254 73 141 255
4.608801 0.226572 0.586032 255 66 140 255
4.601204 0.357098 0.589966 255 66 140 255
4.735203 0.226572 0.558294 254 67 140 255
4.849298 0.385358 0.602259 253 68 143 255
4.858539 0.226572 0.597473 253 70 145 255
4.936265 0.389730 0.697989 255 30 5 255
4.907939 0.550096 0.712658 255 33 67 255
4.900280 0.517743 0.960437 253 33 122 255
4.808464 0.485391 1.045701 252 36 150 255
4.685844 0.453039 1.071480 251 40 167 255
4.705672 0.340782 1.061212 255 33 90 255
4.565277 0.429355 1.030867 243 100 171 255
4.450316 0.429355 0.808867 242 135 154 255
4.486727 0.453039 0.686965 247 111 147 255
4.578543 0.485391 0.601700 252 81 142 255
4.726656 0.373414 0.562720 254 66 140 255
4.701163 0.517743 0.575921 254 68 142 255
4.891270 0.692109 0.862055 251 48 187 255
4.936690 0.541427 0.838535 254 32 93 255
4.858275 0.657091 0.982189 249 46 211 255
4.771126 0.609255 1.065036 248 47 226 255
4.653174 0.561420 1.088398 246 52 231 255
4.536023 0.526402 1.046016 230 160 214 255
4.479067 0.420686 0.934744 239 134 160 255
4.451065 0.513585 0.949245 223 196 175 255
4.421063 0.526402 0.824015 223 201 173 255
4.454057 0.561420 0.703882 232 173 165 255
4.541206 0.609255 0.621035 243 126 154 255
4.776309 0.692109 0.640055 248 71 155 255
4.821730 0.541427 0.616534 252 69 147 255
4.797050 0.851572 0.770081 248 88 238 255
4.861268 0.704926 0.736826 252 65 160 255
4.828772 0.834825 0.894419 247 61 247 255
4.719752 0.726572 1.091640 246 49 253 255
4.608222 0.664072 1.111676 245 50 253 255
4.412534 0.601572 0.969198 207 240 185 255
4.380811 0.618319 0.844859 206 243 185 255
4.409104 0.664072 0.727161 212 229 182 255
4.489831 0.726572 0.647639 224 189 173 255
4.601362 0.789072 0.627602 235 136 169 255
4.659159 0.657091 0.597673 248 90 151 255
4.713811 0.834825 0.672419 239 80 172 255
4.716383 0.987524 0.811852 246 65 254 255
4.727880 0.911429 1.049713 246 45 255 255
4.800479 0.789072 1.012118 246 51 251 255
4.655219 0.835333 1.125057 246 45 255 255
4.551755 0.759238 1.140917 246 46 255 255
4.495771 0.618319 1.066859 216 214 210 255
4.445210 0.703533 1.093042 206 244 195 255
4.364134 0.683143 0.994261 202 253 188 255
4.352638 0.759238 0.756401 204 251 187 255
4.528763 0.911429 0.665197 218 188 186 255
4.657099 1.086772 0.983318 246 45 255 255
4.750268 0.967134 0.935072 246 48 255 255
4.641719 1.022067 1.094330 246 45 255 255
4.578632 0.933679 1.164717 246 45 255 255
4.385205 0.780586 1.124115 203 252 190 255
4.306694 0.756902 1.024006 202 255 188 255
4.270245 0.780586 0.902115 202 255 188 255
4.330250 0.703533 0.871042 202 254 188 255
4.285625 0.845291 0.791103 202 255 188 255
4.425299 0.835333 0.681056 208 232 185 255
4.348711 0.933679 0.720716 203 247 189 255
4.542138 1.086772 0.761318 212 120 223 255
4.635307 0.967134 0.713071 226 97 197 255
4.620649 1.110456 0.861427 198 45 255 255
4.550860 1.191691 1.038332 246 46 255 255
4.491302 1.019925 1.209940 246 45 255 255
4.484741 0.845291 1.175619 246 45 255 255
4.408327 0.920756 1.215189 246 45 255 255
4.241196 0.821587 1.057923 202 255 188 255
4.201822 0.848159 0.937547 202 255 188 255
4.261381 1.019925 0.765939 202 250 190 255
4.344355 1.119094 0.760690 200 228 200 255
4.442602 1.022067 0.709814 206 220 196 255
4.511486 1.218264 0.917956 197 49 243 255
4.433370 1.280097 1.099173 244 57 253 255
4.434819 1.200851 1.201471 246 47 255 255
4.543472 1.119094 1.145206 246 45 255 255
4.394721 1.092597 1.259953 246 45 255 255
4.241112 0.905098 1.198732 203 254 189 255
4.316782 0.848159 1.159547 202 254 189 255
4.126152 0.905098 0.976732 202 255 188 255
4.209210 0.920756 0.830673 202 255 188 255
4.124702 0.984344 0.874435 202 254 188 255
4.164800 1.092597 0.815952 201 247 192 255
4.318409 1.280097 0.877173 178 107 249 255
4.435900 1.191691 0.816332 197 126 240 255
4.390760 1.309104 0.980473 179 56 249 255
4.306638 1.350477 1.164800 223 116 232 255
4.317620 1.265936 1.262161 239 75 248 255
4.290544 1.150452 1.313900 244 56 253 255
4.323819 0.984344 1.258951 246 45 255 255
4.232664 1.034967 1.306154 245 50 254 255
4.159490 0.950426 1.240999 204 249 192 255
4.168760 0.876091 1.095433 202 255 188 255
4.044529 0.950426 1.018999 202 254 188 255
4.033547 1.034967 0.921638 201 251 190 255
4.060623 1.150452 0.869899 195 230 201 255
4.235702 1.200851 0.816955 194 216 208 255
4.118504 1.265936 0.877645 181 180 225 255
4.191678 1.350477 0.942800 150 81 245 255
4.123050 1.433979 1.119104 150 69 248 255
4.260540 1.381421 1.047906 159 69 248 255
4.193879 1.313239 1.326239 198 156 205 255
4.136422 1.071757 1.355992 236 85 245 255
4.008134 0.951016 1.178611 205 255 192 255
4.090628 0.919482 1.135893 202 255 188 255
3.958351 0.983369 1.063625 200 247 193 255
3.937304 1.071757 0.971477 195 231 201 255
3.994762 1.313239 0.941723 164 125 242 255
3.980644 1.465878 1.192847 148 65 249 255
4.172832 1.401627 1.234090 160 196 166 255
4.065714 1.341948 1.392607 126 220 130 255
4.180552 1.192498 1.370858 225 111 234 255
4.036737 1.094086 1.407613 201 153 209 255
4.073312 0.983369 1.285625 210 234 201 255
3.984053 1.003363 1.331847 225 208 222 255
3.922690 0.970156 1.222857 219 255 210 255
3.837620 1.094086 1.023097 177 174 227 255
3.950631 1.192498 0.926857 179 181 224 255
3.836707 1.218017 0.985852 162 116 244 255
3.866597 1.341948 1.008091 155 70 252 255
4.057871 1.401627 1.012090 149 57 252 255
3.919282 1.432671 1.083857 150 47 254 255
3.835760 1.476572 1.267873 147 70 248 255
4.034242 1.432671 1.305857 86 240 89 255
3.935319 1.351572 1.460131 61 248 62 255
4.066628 1.218017 1.429852 169 188 175 255
3.950720 1.226572 1.489873 100 234 103 255
3.935319 1.101572 1.460131 139 213 144 255
3.835760 0.976572 1.267873 239 255 235 255
3.778280 1.010066 1.156873 172 150 236 255
3.869092 1.003363 1.109847 189 212 211 255
3.720800 1.226572 1.045873 154 61 253 255
3.778280 1.443079 1.156873 150 49 253 255
3.752238 1.432671 1.451890 9 255 3 255
3.893240 1.443079 1.378873 33 253 32 255
3.804923 1.341948 1.527655 18 255 16 255
3.833899 1.094086 1.512650 82 243 84 255
3.893240 1.010066 1.378873 242 212 242 255
3.802427 1.003363 1.425900 254 235 255 255
3.748830 0.970156 1.312889 250 255 249 255
3.687467 1.003363 1.203899 164 103 251 255
3.736202 1.101572 1.075615 161 108 246 255
3.634783 1.094086 1.128134 157 71 254 255
3.604892 1.218017 1.105894 154 54 255 255
3.736202 1.351572 1.075615 152 41 255 255
3.637278 1.432671 1.229889 147 70 248 255
3.690876 1.465878 1.342900 143 90 241 255
3.613649 1.401627 1.523657 10 255 3 255
3.676758 1.313239 1.594024 10 255 5 255
3.834813 1.218017 1.549895 49 251 49 255
3.720889 1.192498 1.608889 16 255 14 255
3.713169 0.983369 1.472121 255 249 255 255
3.663386 0.951016 1.357135 254 255 254 255
3.598208 0.983369 1.250121 169 102 255 255
3.535099 1.071757 1.179754 164 87 255 255
3.477641 1.313239 1.209508 152 89 247 255
3.605806 1.341948 1.143139 155 56 255 255
3.498688 1.401627 1.301656 139 104 235 255
3.410981 1.381422 1.487840 114 170 192 255
3.548470 1.433980 1.416643 133 124 225 255
3.553017 1.265937 1.658101 11 255 7 255
3.610897 1.150452 1.665847 17 255 15 255
3.734216 1.071757 1.564270 46 253 46 255
3.626991 0.950426 1.516748 229 255 229 255
3.512030 0.950426 1.294747 184 131 252 255
3.438856 1.034967 1.229592 181 124 252 255
3.490968 1.192498 1.164888 163 83 255 255
3.380976 1.150452 1.221846 179 123 254 255
3.353900 1.265937 1.273586 138 133 225 255
3.364883 1.350477 1.370946 123 150 208 255
3.280760 1.309104 1.555274 85 212 143 255
3.479843 1.350477 1.592946 10 255 3 255
3.353111 1.280098 1.658573 9 255 3 255
3.435818 1.200851 1.718792 11 255 7 255
3.506720 1.092598 1.719794 18 255 15 255
3.637973 1.034967 1.614108 48 255 48 255
3.546818 0.984344 1.661312 66 255 66 255
3.502760 0.876091 1.440313 255 255 255 255
3.580893 0.919482 1.399853 255 255 255 255
3.430408 0.905098 1.337014 212 171 233 255
3.276799 1.092598 1.275793 214 171 231 255
3.236701 1.200851 1.334276 124 183 178 255
3.238151 1.280098 1.436573 96 200 160 255
3.235620 1.191691 1.719414 10 255 3 255
3.410139 1.019925 1.769807 19 255 17 255
3.462310 0.920756 1.705073 98 255 97 255
3.469699 0.848159 1.598199 253 255 253 255
3.545369 0.905098 1.559015 245 255 245 255
3.430324 0.821587 1.477823 255 255 255 255
3.354738 0.848159 1.376199 222 203 255 255
3.347701 0.984344 1.276796 218 170 217 255
3.263193 0.920756 1.320557 251 186 130 255
3.128048 1.119095 1.390541 173 207 117 255
3.120660 1.191691 1.497414 101 227 108 255
3.050870 1.110455 1.674319 73 245 59 255
3.160034 1.218264 1.617790 63 236 94 255
3.228918 1.022067 1.825933 13 255 9 255
3.327165 1.119095 1.775056 12 255 8 255
3.385896 0.845290 1.744643 239 255 239 255
3.401275 0.780586 1.633632 255 255 255 255
3.286315 0.780586 1.411631 237 227 255 255
3.186779 0.845290 1.360128 255 183 99 255
3.092888 0.933679 1.371030 255 184 100 255
3.180219 1.019925 1.325806 249 189 147 255
3.029801 1.022067 1.441417 233 194 96 255
3.014421 1.086772 1.552428 149 228 78 255
3.036213 0.967134 1.822675 33 254 13 255
3.129381 1.086772 1.774429 25 255 10 255
3.142758 0.911429 1.870550 17 255 14 255
3.246222 0.835334 1.854690 27 255 25 255
3.322809 0.933679 1.815030 22 255 20 255
3.318882 0.759238 1.779346 251 255 251 255
3.341270 0.703533 1.664705 251 255 251 255
3.364826 0.756902 1.511741 255 255 255 255
3.226310 0.703533 1.442704 246 241 255 255
3.119765 0.759238 1.394830 255 183 98 255
3.016301 0.835334 1.410689 255 183 98 255
2.943640 0.911429 1.486034 248 187 96 255
2.955137 0.987524 1.723894 87 247 39 255
2.874471 0.851572 1.765666 78 249 30 255
3.070158 0.789072 1.908144 22 255 20 255
3.181689 0.726572 1.888108 34 255 33 255
3.262416 0.664072 1.808586 255 255 255 255
3.290709 0.618319 1.690887 255 255 255 255
3.307386 0.683143 1.541486 255 255 255 255
3.175749 0.618319 1.468887 251 250 255 255
2.951768 0.726572 1.444107 255 183 98 255
2.871041 0.789072 1.523629 250 186 96 255
2.921253 0.967134 1.600675 177 222 71 255
2.842748 0.834826 1.641327 178 223 68 255
2.810252 0.704926 1.798920 71 251 29 255
2.957709 0.834826 1.863328 21 255 12 255
3.012362 0.657091 1.938074 29 255 27 255
3.130314 0.609256 1.914711 43 255 42 255
3.250457 0.526402 1.711731 253 255 255 255
3.258986 0.601572 1.566549 255 255 255 255
3.220456 0.513585 1.586501 253 255 254 255
3.135497 0.526402 1.489731 253 253 255 255
3.063299 0.664072 1.424070 255 183 98 255
2.900394 0.609256 1.470711 255 183 98 255
2.813245 0.657091 1.553558 251 186 96 255
2.780251 0.692109 1.673691 174 224 68 255
2.849790 0.541427 1.919212 21 255 19 255
2.895211 0.692109 1.895691 25 255 18 255
2.970357 0.517743 1.959825 35 255 34 255
3.092977 0.485391 1.934046 55 255 57 255
3.217463 0.561420 1.831864 254 255 255 255
3.184793 0.453039 1.848782 251 255 254 255
3.221204 0.429355 1.726880 247 255 253 255
3.192453 0.420686 1.601002 247 255 253 255
2.985676 0.453039 1.464266 255 183 98 255
3.018346 0.561420 1.447348 255 183 98 255
2.863056 0.485391 1.490045 255 183 98 255
2.734830 0.541427 1.697212 175 225 67 255
2.763581 0.550096 1.823089 72 250 30 255
2.735255 0.389730 1.837757 65 252 26 255
2.822223 0.385358 1.933487 23 255 24 255
2.944864 0.373414 1.973027 48 255 53 255
3.164965 0.340783 1.859050 239 255 251 255
3.203449 0.328839 1.736074 233 255 250 255
3.175457 0.324467 1.609804 234 255 250 255
3.106243 0.429355 1.504879 253 248 248 255
2.965848 0.340783 1.474534 255 183 98 255
2.745747 0.373414 1.588511 250 186 96 255
2.771240 0.517743 1.575309 250 186 96 255
2.707263 0.385358 1.711487 171 226 65 255
2.812981 0.226572 1.938273 45 255 56 255
2.936317 0.226572 1.977453 77 255 96 255
3.070316 0.357098 1.945781 77 255 90 255
3.158318 0.226572 1.862492 220 255 247 255
3.197497 0.226572 1.739156 208 255 245 255
3.082536 0.226572 1.517156 245 240 255 255
3.088489 0.328839 1.514073 250 248 255 255
2.832798 0.226572 1.505714 255 183 98 255
2.840395 0.357098 1.501780 255 183 98 255
2.737200 0.226572 1.592937 250 186 97 255
2.698021 0.226572 1.716273 170 226 66 255
2.735255 0.063414 1.837757 90 250 66 255
2.725759 0.226572 1.842675 67 252 32 255
2.822223 0.067786 1.933487 95 255 118 255
2.944864 0.079730 1.973027 121 255 155 255
3.062719 0.226572 1.949715 109 255 139 255
3.164965 0.112362 1.859050 188 255 241 255
3.203449 0.124306 1.736074 182 255 241 255
3.175457 0.128677 1.609804 186 255 241 255
3.169759 0.226572 1.612754 211 255 246 255
3.088489 0.124306 1.514073 238 228 255 255
2.959201 0.226572 1.477976 255 183 98 255
2.840395 0.096046 1.501780 255 183 98 255
2.745747 0.079730 1.588511 252 185 98 255
2.707263 0.067786 1.711487 185 221 84 255
2.763581 -0.096952 1.823089 152 240 120 255
2.849790 -0.088283 1.919212 146 255 181 255
3.092977 -0.032247 1.934046 165 255 229 255
3.070316 0.096046 1.945781 146 255 194 255
3.184793 0.000106 1.848782 171 255 239 255
3.221204 0.023789 1.726880 169 255 238 255
3.106243 0.023789 1.504879 225 209 255 255
2.965848 0.112362 1.474534 255 183 98 255
2.863056 -0.032247 1.490045 255 183 98 255
2.771240 -0.064599 1.575309 254 183 98 255
2.734830 -0.088283 1.697212 222 205 108 255
2.810252 -0.251782 1.798921 225 211 147 255
2.895211 -0.238964 1.895691 184 249 214 255
2.970357 -0.064599 1.959825 157 255 210 255
3.012362 -0.203946 1.938074 169 255 235 255
3.217463 -0.108276 1.831864 166 255 238 255
3.250457 -0.073258 1.711731 166 255 238 255
3.192453 0.032458 1.601002 171 255 239 255
3.220455 -0.060440 1.586502 167 255 238 255
3.018346 -0.108276 1.447348 255 183 98 255
2.985676 0.000106 1.464266 255 183 98 255
2.900393 -0.156111 1.470711 255 183 98 255
2.813245 -0.203946 1.553558 255 183 98 255
2.780251 -0.238964 1.673691 253 185 104 255
2.874470 -0.398428 1.765666 246 195 142 255
2.957708 -0.381681 1.863328 192 241 217 255
3.181689 -0.273428 1.888108 166 255 238 255
3.130314 -0.156111 1.914711 167 255 237 255
3.290709 -0.165175 1.690887 166 255 238 255
3.258986 -0.148428 1.566549 166 255 238 255
3.135497 -0.073258 1.489731 208 180 255 255
3.063299 -0.210928 1.424070 255 183 98 255
2.951768 -0.273428 1.444107 255 183 98 255
2.842748 -0.381681 1.641328 255 183 99 255
3.036213 -0.513990 1.822675 179 248 228 255
3.070158 -0.335928 1.908145 167 255 238 255
3.246222 -0.382189 1.854690 166 255 238 255
3.318882 -0.306094 1.779346 166 255 238 255
3.262416 -0.210928 1.808586 166 255 238 255
3.341270 -0.250389 1.664705 166 255 238 255
3.307386 -0.229999 1.541486 166 255 238 255
3.226310 -0.250389 1.442704 174 113 255 255
3.175749 -0.165175 1.468887 189 145 255 255
3.119765 -0.306094 1.394830 254 182 100 255
2.943640 -0.458284 1.486034 255 183 99 255
2.871041 -0.335928 1.523629 255 183 98 255
2.921253 -0.513990 1.600675 252 184 116 255
2.955137 -0.534380 1.723894 239 195 189 255
3.129381 -0.633628 1.774429 167 255 238 255
3.142758 -0.458284 1.870550 166 255 238 255
3.228918 -0.568923 1.825933 166 255 238 255
3.322809 -0.480534 1.815030 166 255 238 255
3.401275 -0.327441 1.633632 166 255 238 255
3.364826 -0.303758 1.511741 166 255 238 255
3.286315 -0.327441 1.411631 163 83 255 255
3.092888 -0.480534 1.371030 246 175 128 255
3.016301 -0.382189 1.410689 255 183 98 255
3.029801 -0.568923 1.441417 238 172 156 255
3.014421 -0.633628 1.552428 219 167 212 255
3.050870 -0.657311 1.674319 210 176 245 255
3.235620 -0.738547 1.719414 167 255 238 255
3.410139 -0.566781 1.769807 166 255 238 255
3.462310 -0.467612 1.705073 166 255 238 255
3.385896 -0.392146 1.744643 166 255 238 255
3.469698 -0.395015 1.598200 166 255 238 255
3.430324 -0.368443 1.477823 166 255 238 255
3.354738 -0.395015 1.376199 156 61 255 255
3.186779 -0.392146 1.360128 239 168 146 255
3.263193 -0.467612 1.320557 182 102 232 255
3.180219 -0.566781 1.325807 186 112 230 255
3.128048 -0.665950 1.390541 181 114 244 255
3.120659 -0.738547 1.497414 181 128 253 255
3.160034 -0.765119 1.617790 189 145 255 255
3.353111 -0.826953 1.658573 168 254 237 255
3.327165 -0.665950 1.775057 166 255 238 255
3.435818 -0.747707 1.718792 166 255 238 255
3.546818 -0.531200 1.661312 166 255 238 255
3.545369 -0.451953 1.559015 166 255 238 255
3.430408 -0.451953 1.337014 152 44 255 255
3.347701 -0.531200 1.276796 154 50 254 255
3.276799 -0.639453 1.275793 157 62 255 255
3.236701 -0.747707 1.334276 162 82 255 255
3.238151 -0.826953 1.436573 170 103 255 255
3.280760 -0.855960 1.555274 178 121 255 255
3.479843 -0.897333 1.592946 173 249 232 255
3.553017 -0.812792 1.658101 167 254 237 255
3.610897 -0.697307 1.665847 166 255 238 255
3.506720 -0.639453 1.719794 166 255 238 255
3.637973 -0.581822 1.614108 166 255 238 255
3.626991 -0.497282 1.516748 166 255 238 255
3.502760 -0.422947 1.440313 166 255 238 255
3.512030 -0.497282 1.294747 152 41 255 255
3.438856 -0.581822 1.229592 152 41 255 255
3.353900 -0.812792 1.273586 158 68 255 255
3.410981 -0.928277 1.487840 255 255 255 255
3.548470 -0.980835 1.416643 255 255 255 255
3.613648 -0.948483 1.523657 194 225 210 255
3.676758 -0.860094 1.594024 176 243 227 255
3.720888 -0.739354 1.608889 170 251 234 255
3.713168 -0.530225 1.472121 168 253 236 255
3.580893 -0.466338 1.399853 151 44 255 255
3.598208 -0.530225 1.250121 152 41 255 255
3.535099 -0.618613 1.179754 152 41 255 255
3.380976 -0.697307 1.221846 153 49 255 255
3.477641 -0.860094 1.209508 157 67 255 255
3.364883 -0.897333 1.370946 165 90 255 255
3.498688 -0.948483 1.301656 164 88 255 255
3.752237 -0.979527 1.451890 226 178 169 255
3.804922 -0.888803 1.527655 206 203 189 255
3.834812 -0.764873 1.549895 187 229 213 255
3.734216 -0.618613 1.564270 168 253 236 255
3.833899 -0.640942 1.512650 179 240 224 255
3.802427 -0.550219 1.425900 179 238 223 255
3.663386 -0.497872 1.357135 151 44 255 255
3.748829 -0.517011 1.312889 152 47 254 255
3.687467 -0.550219 1.203900 153 42 255 255
3.634782 -0.640942 1.128134 152 44 255 255
3.490968 -0.739354 1.164889 153 47 255 255
3.604892 -0.764873 1.105894 154 54 255 255
3.605805 -0.888803 1.143140 160 75 255 255
3.637277 -0.979527 1.229890 168 97 255 255
3.690875 -1.012734 1.342900 255 255 255 255
3.893240 -0.989934 1.378873 246 143 135 255
3.950720 -0.773428 1.489873 221 169 156 255
3.893240 -0.556922 1.378873 207 199 184 255
3.835760 -0.523428 1.267873 158 58 249 255
3.736202 -0.648428 1.075615 161 67 250 255
3.720800 -0.773428 1.045873 160 74 254 255
3.778280 -0.989934 1.156873 175 116 255 255
3.835760 -1.023428 1.267873 255 255 255 255
4.034242 -0.979527 1.305857 254 107 104 255
4.065714 -0.888803 1.392607 251 82 73 255
3.935319 -0.898428 1.460131 237 139 129 255
4.066628 -0.764873 1.429852 244 100 90 255
3.935319 -0.648428 1.460131 208 195 181 255
4.036737 -0.640942 1.407613 238 126 116 255
3.984053 -0.550219 1.331847 237 136 121 255
3.922690 -0.517012 1.222857 175 80 233 255
3.778280 -0.556922 1.156873 161 66 249 255
3.837620 -0.640942 1.023097 185 110 231 255
3.866597 -0.888803 1.008091 182 124 250 255
3.736202 -0.898428 1.075615 167 94 255 255
3.980644 -1.012734 1.192847 255 255 255 255
4.172832 -0.948483 1.234090 255 61 54 255
4.193879 -0.860095 1.326239 255 38 25 255
4.180552 -0.739354 1.370858 253 52 40 255
4.073312 -0.530225 1.285625 249 103 76 255
4.008133 -0.497872 1.178612 203 111 201 255
3.869092 -0.550219 1.109847 183 106 230 255
3.958351 -0.530225 1.063625 218 149 188 255
3.937304 -0.618613 0.971477 224 155 182 255
3.836707 -0.764873 0.985852 181 111 241 255
3.994762 -0.860095 0.941723 210 162 230 255
4.057871 -0.948483 1.012090 208 180 255 255
3.919282 -0.979527 1.083857 189 145 255 255
4.260540 -0.928277 1.047906 255 255 255 255
4.123049 -0.980835 1.119104 255 255 255 255
4.317620 -0.812792 1.262161 255 29 5 255
4.290544 -0.697307 1.313900 255 29 1 255
4.136421 -0.618613 1.355993 250 73 63 255
4.232664 -0.581822 1.306154 254 37 21 255
4.159490 -0.497282 1.240999 254 108 61 255
4.090628 -0.466338 1.135893 230 144 158 255
4.033547 -0.581822 0.921638 247 178 130 255
4.060623 -0.697307 0.869899 245 180 144 255
3.950631 -0.739354 0.926858 216 155 203 255
4.191678 -0.897333 0.942800 227 212 255 255
4.390760 -0.855960 0.980473 255 254 254 255
4.306638 -0.897333 1.164800 255 36 23 255
4.433370 -0.826953 1.099173 255 30 11 255
4.394721 -0.639453 1.259953 255 29 0 255
4.323819 -0.531200 1.258951 255 29 0 255
4.168760 -0.422947 1.095433 244 162 128 255
4.044529 -0.497282 1.018999 242 174 138 255
4.126152 -0.451953 0.976732 251 181 111 255
4.164800 -0.639453 0.815952 254 184 110 255
4.118504 -0.812792 0.877645 239 187 183 255
4.318409 -0.826953 0.877173 241 233 255 255
4.550860 -0.738548 1.038333 255 30 7 255
4.434819 -0.747707 1.201471 255 29 1 255
4.543472 -0.665951 1.145206 255 29 0 255
4.491301 -0.566781 1.209940 255 29 0 255
4.408327 -0.467612 1.215189 255 29 0 255
4.241112 -0.451953 1.198732 255 126 67 255
4.316782 -0.395015 1.159547 255 135 72 255
4.201821 -0.395015 0.937547 253 182 103 255
4.124702 -0.531200 0.874435 254 183 103 255
4.261380 -0.566781 0.765939 255 183 101 255
4.344355 -0.665951 0.760690 254 189 125 255
4.235702 -0.747707 0.816955 251 190 140 255
4.435900 -0.738548 0.816332 248 241 252 255
4.620649 -0.657312 0.861427 255 140 138 255
4.511486 -0.765120 0.917956 255 195 194 255
4.641719 -0.568923 1.094330 255 29 0 255
4.578631 -0.480535 1.164717 255 29 0 255
4.484741 -0.392147 1.175619 255 29 0 255
4.306694 -0.303758 1.024006 249 164 116 255
4.241196 -0.368443 1.057923 249 167 116 255
4.285624 -0.392147 0.791103 255 183 100 255
4.209209 -0.467612 0.830674 255 183 99 255
4.348711 -0.480535 0.720716 255 184 106 255
4.442602 -0.568923 0.709814 254 190 132 255
4.542138 -0.633628 0.761318 251 236 245 255
4.750268 -0.513990 0.935072 255 30 11 255
4.657099 -0.633628 0.983318 255 30 9 255
4.727880 -0.458284 1.049713 255 29 1 255
4.655219 -0.382189 1.125057 255 29 0 255
4.551755 -0.306094 1.140917 255 29 0 255
4.385205 -0.327442 1.124115 255 129 68 255
4.364134 -0.229999 0.994261 245 151 128 255
4.270245 -0.327442 0.902115 252 182 104 255
4.352638 -0.306094 0.756401 250 180 106 255
4.425299 -0.382189 0.681056 253 182 125 255
4.635307 -0.513990 0.713071 250 216 232 255
4.716383 -0.534380 0.811852 255 63 55 255
4.828772 -0.381681 0.894419 255 31 12 255
4.719752 -0.273428 1.091640 255 29 0 255
4.608222 -0.210928 1.111676 255 29 0 255
4.495771 -0.165175 1.066859 255 80 40 255
4.445210 -0.250389 1.093042 255 108 57 255
4.412534 -0.148428 0.969198 238 130 146 255
4.380811 -0.165175 0.844859 243 154 128 255
4.330250 -0.250389 0.871042 248 176 112 255
4.409104 -0.210928 0.727161 245 160 122 255
4.489831 -0.273428 0.647639 250 159 149 255
4.528763 -0.458284 0.665197 252 189 158 255
4.713811 -0.381681 0.672419 249 179 209 255
4.797050 -0.398428 0.770081 255 56 48 255
4.861268 -0.251783 0.736826 255 53 42 255
4.891269 -0.238965 0.862056 255 31 11 255
4.800479 -0.335928 1.012118 255 29 2 255
4.858275 -0.203947 0.982189 255 29 1 255
4.771126 -0.156112 1.065036 255 29 0 255
4.653173 -0.108276 1.088398 255 29 0 255
4.536023 -0.073258 1.046016 255 53 24 255
4.451065 -0.060441 0.949245 239 101 154 255
4.421063 -0.073258 0.824015 244 114 144 255
4.541206 -0.156112 0.621035 249 113 155 255
4.601362 -0.335928 0.627602 250 164 176 255
4.776309 -0.238965 0.640055 248 134 182 255
4.936691 -0.088283 0.838535 255 30 7 255
4.900280 -0.064599 0.960437 255 29 0 255
4.808464 -0.032247 1.045701 255 29 0 255
4.685844 0.000106 1.071480 255 29 0 255
4.565277 0.023789 1.030867 255 33 9 255
4.450316 0.023789 0.808867 248 83 147 255
4.486727 0.000106 0.686965 250 82 144 255
4.454057 -0.108276 0.703882 245 117 140 255
4.578543 -0.032247 0.601700 252 78 148 255
4.659159 -0.203947 0.597673 249 118 168 255
4.701163 -0.064599 0.575921 251 83 154 255
4.907939 -0.096951 0.712658 255 42 31 255
4.964258 0.067786 0.824259 255 29 3 255
4.925773 0.079730 0.947236 255 29 0 255
4.705672 0.112362 1.061212 255 29 0 255
4.583032 0.124306 1.021673 255 30 1 255
4.496063 0.128677 0.925943 248 67 151 255
4.479067 0.032458 0.934744 243 78 155 255
4.468071 0.124306 0.799673 252 68 145 255
4.506556 0.112362 0.676697 253 67 142 255
4.601204 0.096046 0.589966 254 67 142 255
4.849298 0.067786 0.602259 251 77 150 255
4.821731 -0.088283 0.616534 250 97 162 255
4.936265 0.063414 0.697989 255 33 17 255
4.831124 0.096046 1.033966 255 29 0 255
4.726656 0.079730 0.562720 253 70 144 255
3 0 1 2
3 3 4 5
3 5 6 7
3 7 8 9
3 8 10 9
3 10 11 12
3 12 13 14
3 13 15 14
3 16 17 15
3 18 19 17
3 20 21 19
3 21 22 23
3 23 24 3
3 25 4 24
3 4 26 6
3 6 27 8
3 8 28 29
3 28 11 29
3 30 13 11
3 13 31 16
3 16 32 18
3 32 20 18
3 33 34 20
3 35 22 34
3 22 25 24
3 25 36 37
3 36 26 37
3 38 27 26
3 39 28 27
3 40 30 28
3 41 42 30
3 43 31 42
3 44 32 31
3 45 33 32
3 46 35 33
3 35 47 48
3 47 25 48
3 49 36 50
3 51 38 36
3 38 52 39
3 39 53 40
3 53 41 40
3 41 54 43
3 43 55 44
3 44 56 45
3 45 57 46
3 46 58 59
3 59 60 47
3 60 50 47
3 61 51 49
3 51 62 63
3 62 52 63
3 64 53 52
3 65 66 53
3 67 54 66
3 68 55 54
3 55 69 56
3 69 57 56
3 57 70 58
3 70 60 58
3 60 61 49
3 61 71 72
3 71 62 72
3 73 64 62
3 74 65 64
3 65 75 67
3 67 76 68
3 68 77 78
3 78 79 69
3 79 80 69
3 81 70 80
3 70 82 83
3 83 84 61
3 84 85 71
3 85 73 71
3 73 86 74
3 86 87 74
3 88 75 87
3 75 89 76
3 89 77 76
3 90 79 77
3 79 91 81
3 81 92 93
3 92 82 93
3 82 94 84
3 94 95 85
3 85 96 97
3 96 86 97
3 98 88 86
3 88 99 100
3 99 89 100
3 89 101 90
3 101 102 90
3 103 91 102
3 104 92 91
3 92 105 106
3 105 94 106
3 107 108 95
3 108 96 95
3 109 98 96
3 110 111 98
3 112 99 111
3 113 114 99
3 114 115 101
3 101 116 103
3 116 104 103
3 117 118 104
3 119 105 118
3 120 107 105
3 121 108 122
3 108 123 109
3 123 110 109
3 110 124 112
3 124 113 112
3 113 125 126
3 126 127 115
3 115 128 116
3 128 117 116
3 117 129 119
3 129 120 119
3 120 121 122
3 130 131 121
3 131 132 123
3 132 133 123
3 133 134 124
3 134 135 124
3 136 125 135
3 137 127 125
3 127 138 128
3 138 139 128
3 140 129 139
3 141 142 129
3 143 121 142
3 144 145 130
3 145 146 132
3 146 147 132
3 148 134 147
3 149 136 134
3 136 150 137
3 137 151 152
3 151 138 152
3 138 153 140
3 153 141 140
3 141 154 143
3 154 130 143
3 144 155 156
3 155 146 156
3 157 148 146
3 148 158 149
3 158 159 149
3 160 150 159
3 161 151 150
3 162 163 151
3 164 153 163
3 165 166 153
3 166 167 154
3 167 144 154
3 168 169 155
3 169 157 155
3 170 171 157
3 172 158 171
3 158 173 160
3 173 161 160
3 174 162 161
3 175 164 162
3 176 165 164
3 165 177 178
3 178 179 167
3 179 168 167
3 180 169 181
3 169 182 170
3 170 183 172
3 183 184 172
3 184 185 173
3 185 174 173
3 174 186 175
3 186 176 175
3 187 188 176
3 189 177 188
3 190 179 177
3 191 181 179
3 192 193 180
3 194 182 193
3 195 183 182
3 196 197 183
3 198 185 197
3 185 199 200
3 199 186 200
3 201 187 186
3 187 202 189
3 189 203 190
3 203 191 190
3 204 180 191
3 192 205 194
3 205 195 194
3 195 206 196
3 196 207 198
3 198 208 209
3 208 199 209
3 210 201 199
3 211 212 201
3 213 202 212
3 202 214 203
3 203 215 204
3 215 192 204
3 216 205 217
3 205 218 219
3 218 206 219
3 206 220 207
3 220 208 207
3 221 210 208
3 210 222 211
3 211 223 213
3 213 224 225
3 225 226 214
3 226 215 214
3 227 217 215
3 216 228 229
3 229 230 218
3 218 231 232
3 231 220 232
3 233 221 220
3 234 235 221
3 235 236 222
3 222 237 223
3 237 224 223
3 238 226 224
3 239 227 226
3 227 240 216
3 241 228 240
3 228 242 230
3 230 243 231
3 231 244 233
3 244 234 233
3 245 246 234
3 246 247 236
3 247 237 236
3 237 248 238
3 238 249 239
3 249 250 239
3 251 240 250
3 252 253 241
3 253 254 242
3 254 243 242
3 255 244 243
3 244 256 245
3 256 257 245
3 258 247 257
3 259 260 247
3 260 261 248
3 261 249 248
3 262 251 249
3 263 241 251
3 252 264 265
3 264 254 265
3 266 255 254
3 267 268 255
3 269 256 268
3 270 258 256
3 271 259 258
3 259 272 273
3 272 261 273
3 274 262 261
3 262 275 263
3 263 276 252
3 277 264 276
3 278 266 264
3 279 267 266
3 267 280 269
3 269 281 270
3 270 282 271
3 282 283 271
3 283 284 272
3 284 274 272
3 274 285 286
3 286 287 275
3 287 276 275
3 277 288 278
3 288 279 278
3 289 290 279
3 290 291 280
3 291 281 280
3 292 282 281
3 282 293 294
3 293 284 294
3 284 295 296
3 296 297 285
3 297 287 285
3 298 277 287
3 299 288 300
3 301 289 288
3 302 303 289
3 303 304 291
3 291 305 292
3 292 306 307
3 307 308 293
3 308 309 293
3 309 310 295
3 295 311 297
3 297 312 298
3 312 300 298
3 313 301 299
3 314 302 301
3 302 315 316
3 315 304 316
3 317 305 304
3 318 306 305
3 306 319 308
3 319 320 308
3 320 321 310
3 310 322 311
3 322 312 311
3 323 299 312
3 324 314 313
3 325 326 314
3 327 315 326
3 315 328 317
3 317 329 318
3 329 330 318
3 331 319 330
3 319 332 333
3 333 334 321
3 321 335 322
3 322 336 323
3 336 313 323
3 337 325 324
3 338 327 325
3 327 339 340
3 339 328 340
3 328 341 329
3 329 342 331
3 342 343 331
3 343 344 332
3 332 345 334
3 345 335 334
3 335 346 336
3 346 324 336
3 337 347 338
3 347 348 338
3 348 349 339
3 339 350 351
3 351 352 341
3 341 353 342
3 342 354 355
3 354 344 355
3 356 345 344
3 345 357 358
3 358 359 346
3 359 337 346
3 360 361 347
3 361 362 347
3 363 349 362
3 364 350 349
3 350 365 352
3 352 366 353
3 366 354 353
3 367 356 354
3 356 368 369
3 369 370 357
3 370 359 357
3 371 360 359
3 372 373 361
3 373 363 361
3 363 374 364
3 364 375 376
3 376 377 365
3 365 378 366
3 378 367 366
3 379 380 367
3 381 368 380
3 382 370 368
3 383 371 370
3 384 372 371
3 385 386 373
3 386 387 373
3 388 374 387
3 374 389 375
3 375 390 377
3 390 378 377
3 378 391 379
3 379 392 381
3 381 393 382
3 382 394 383
3 394 384 383
3 395 385 384
3 396 397 386
3 386 398 388
3 388 399 400
3 400 401 389
3 389 402 390
3 402 403 390
3 403 404 391
3 404 392 391
3 405 393 392
3 393 406 394
3 406 395 394
3 395 407 396
3 408 397 407
3 409 398 397
3 410 399 398
3 411 401 399
3 401 412 402
3 412 413 402
3 413 414 404
3 404 415 405
3 415 416 405
3 416 417 406
3 417 418 406
3 419 407 418
3 408 420 409
3 409 421 410
3 410 422 411
3 422 423 411
3 424 412 423
3 425 426 412
3 427 414 426
3 428 415 414
3 429 430 415
3 431 417 430
3 432 419 417
3 433 408 419
3 434 435 420
3 435 421 420
3 421 436 422
3 436 424 422
3 424 437 425
3 437 427 425
3 438 428 427
3 428 439 429
3 439 431 429
3 440 432 431
3 432 441 433
3 441 434 433
3 442 443 435
3 435 444 445
3 445 446 436
3 446 447 436
3 448 437 447
3 449 438 437
3 450 451 438
3 451 452 439
3 452 440 439
3 440 453 454
3 453 441 454
3 441 455 442
3 455 456 443
3 443 457 444
3 457 446 444
3 458 448 446
3 448 459 449
3 449 460 450
3 460 461 450
3 462 452 461
3 463 464 452
3 464 465 453
3 453 466 467
3 466 455 467
3 468 456 469
3 456 470 457
3 457 471 458
3 471 472 458
3 473 459 472
3 474 460 459
3 475 462 460
3 462 476 463
3 463 477 478
3 477 465 478
3 465 479 466
3 466 468 469
3 480 481 468
3 482 470 481
3 470 483 471
3 471 484 473
3 484 474 473
3 474 485 475
3 485 486 475
3 487 476 486
3 476 488 477
3 488 489 477
3 489 490 479
3 479 480 468
3 480 491 482
3 491 492 482
3 493 483 492
3 494 484 483
3 495 496 484
3 497 485 496
3 485 498 487
3 498 499 487
3 499 500 488
3 488 501 502
3 501 490 502
3 503 480 490
3 504 491 505
3 491 506 493
3 493 507 494
3 507 495 494
3 508 497 495
3 497 509 510
3 509 498 510
3 498 511 512
3 512 513 500
3 513 501 500
3 514 503 501
3 515 505 503
3 504 516 517
3 517 518 506
3 506 519 507
3 507 520 508
3 520 521 508
3 521 522 509
3 522 523 509
3 523 524 511
3 511 525 513
3 525 514 513
3 514 526 515
3 526 504 515
3 527 528 516
3 528 518 516
3 518 529 519
3 519 530 520
3 520 531 532
3 532 533 522
3 522 534 535
3 534 524 535
3 536 525 524
3 537 538 525
3 538 539 526
3 526 540 527
3 541 528 540
3 542 543 528
3 544 529 543
3 545 530 529
3 546 531 530
3 547 533 531
3 548 534 533
3 549 536 534
3 536 550 537
3 550 551 537
3 551 552 539
3 539 541 540
3 541 553 542
3 542 554 544
3 544 555 545
3 545 556 546
3 556 547 546
3 557 548 547
3 548 558 549
3 549 559 560
3 560 561 550
3 561 562 550
3 563 552 562
3 552 564 541
3 564 565 553
3 565 554 553
3 566 555 554
3 555 567 556
3 556 568 557
3 557 569 570
3 569 558 570
3 571 559 558
3 572 561 559
3 573 563 561
3 563 574 575
3 575 576 564
3 3 565 576
3 5 566 565
3 7 577 566
3 577 10 567
3 10 568 567
3 568 14 569
3 14 571 569
3 15 572 571
3 572 19 573
3 19 578 573
3 578 23 574
3 574 3 576
3 3 24 4
3 5 4 6
3 7 6 8
3 8 29 10
3 10 29 11
3 12 11 13
3 13 16 15
3 16 18 17
3 18 20 19
3 20 34 21
3 21 34 22
3 23 22 24
3 25 37 4
3 4 37 26
3 6 26 27
3 8 27 28
3 28 30 11
3 30 42 13
3 13 42 31
3 16 31 32
3 32 33 20
3 33 35 34
3 35 48 22
3 22 48 25
3 25 50 36
3 36 38 26
3 38 39 27
3 39 40 28
3 40 41 30
3 41 43 42
3 43 44 31
3 44 45 32
3 45 46 33
3 46 59 35
3 35 59 47
3 47 50 25
3 49 51 36
3 51 63 38
3 38 63 52
3 39 52 53
3 53 66 41
3 41 66 54
3 43 54 55
3 44 55 56
3 45 56 57
3 46 57 58
3 59 58 60
3 60 49 50
3 61 72 51
3 51 72 62
3 62 64 52
3 64 65 53
3 65 67 66
3 67 68 54
3 68 78 55
3 55 78 69
3 69 80 57
3 57 80 70
3 70 83 60
3 60 83 61
3 61 84 71
3 71 73 62
3 73 74 64
3 74 87 65
3 65 87 75
3 67 75 76
3 68 76 77
3 78 77 79
3 79 81 80
3 81 93 70
3 70 93 82
3 83 82 84
3 84 94 85
3 85 97 73
3 73 97 86
3 86 88 87
3 88 100 75
3 75 100 89
3 89 90 77
3 90 102 79
3 79 102 91
3 81 91 92
3 92 106 82
3 82 106 94
3 94 107 95
3 85 95 96
3 96 98 86
3 98 111 88
3 88 111 99
3 99 114 89
3 89 114 101
3 101 103 102
3 103 104 91
3 104 118 92
3 92 118 105
3 105 107 94
3 107 122 108
3 108 109 96
3 109 110 98
3 110 112 111
3 112 113 99
3 113 126 114
3 114 126 115
3 101 115 116
3 116 117 104
3 117 119 118
3 119 120 105
3 120 122 107
3 121 131 108
3 108 131 123
3 123 133 110
3 110 133 124
3 124 135 113
3 113 135 125
3 126 125 127
3 115 127 128
3 128 139 117
3 117 139 129
3 129 142 120
3 120 142 121
3 130 145 131
3 131 145 132
3 132 147 133
3 133 147 134
3 134 136 135
3 136 137 125
3 137 152 127
3 127 152 138
3 138 140 139
3 140 141 129
3 141 143 142
3 143 130 121
3 144 156 145
3 145 156 146
3 146 148 147
3 148 149 134
3 149 159 136
3 136 159 150
3 137 150 151
3 151 163 138
3 138 163 153
3 153 166 141
3 141 166 154
3 154 144 130
3 144 168 155
3 155 157 146
3 157 171 148
3 148 171 158
3 158 160 159
3 160 161 150
3 161 162 151
3 162 164 163
3 164 165 153
3 165 178 166
3 166 178 167
3 167 168 144
3 168 181 169
3 169 170 157
3 170 172 171
3 172 184 158
3 158 184 173
3 173 174 161
3 174 175 162
3 175 176 164
3 176 188 165
3 165 188 177
3 178 177 179
3 179 181 168
3 180 193 169
3 169 193 182
3 170 182 183
3 183 197 184
3 184 197 185
3 185 200 174
3 174 200 186
3 186 187 176
3 187 189 188
3 189 190 177
3 190 191 179
3 191 180 181
3 192 194 193
3 194 195 182
3 195 196 183
3 196 198 197
3 198 209 185
3 185 209 199
3 199 201 186
3 201 212 187
3 187 212 202
3 189 202 203
3 203 204 191
3 204 192 180
3 192 217 205
3 205 219 195
3 195 219 206
3 196 206 207
3 198 207 208
3 208 210 199
3 210 211 201
3 211 213 212
3 213 225 202
3 202 225 214
3 203 214 215
3 215 217 192
3 216 229 205
3 205 229 218
3 218 232 206
3 206 232 220
3 220 221 208
3 221 235 210
3 210 235 222
3 211 222 223
3 213 223 224
3 225 224 226
3 226 227 215
3 227 216 217
3 216 240 228
3 229 228 230
3 218 230 231
3 231 233 220
3 233 234 221
3 234 246 235
3 235 246 236
3 222 236 237
3 237 238 224
3 238 239 226
3 239 250 227
3 227 250 240
3 241 253 228
3 228 253 242
3 230 242 243
3 231 243 244
3 244 245 234
3 245 257 246
3 246 257 247
3 247 260 237
3 237 260 248
3 238 248 249
3 249 251 250
3 251 241 240
3 252 265 253
3 253 265 254
3 254 255 243
3 255 268 244
3 244 268 256
3 256 258 257
3 258 259 247
3 259 273 260
3 260 273 261
3 261 262 249
3 262 263 251
3 263 252 241
3 252 276 264
3 264 266 254
3 266 267 255
3 267 269 268
3 269 270 256
3 270 271 258
3 271 283 259
3 259 283 272
3 272 274 261
3 274 286 262
3 262 286 275
3 263 275 276
3 277 278 264
3 278 279 266
3 279 290 267
3 267 290 280
3 269 280 281
3 270 281 282
3 282 294 283
3 283 294 284
3 284 296 274
3 274 296 285
3 286 285 287
3 287 277 276
3 277 300 288
3 288 289 279
3 289 303 290
3 290 303 291
3 291 292 281
3 292 307 282
3 282 307 293
3 293 309 284
3 284 309 295
3 296 295 297
3 297 298 287
3 298 300 277
3 299 301 288
3 301 302 289
3 302 316 303
3 303 316 304
3 291 304 305
3 292 305 306
3 307 306 308
3 308 320 309
3 309 320 310
3 295 310 311
3 297 311 312
3 312 299 300
3 313 314 301
3 314 326 302
3 302 326 315
3 315 317 304
3 317 318 305
3 318 330 306
3 306 330 319
3 319 333 320
3 320 333 321
3 310 321 322
3 322 323 312
3 323 313 299
3 324 325 314
3 325 327 326
3 327 340 315
3 315 340 328
3 317 328 329
3 329 331 330
3 331 343 319
3 319 343 332
3 333 332 334
3 321 334 335
3 322 335 336
3 336 324 313
3 337 338 325
3 338 348 327
3 327 348 339
3 339 351 328
3 328 351 341
3 329 341 342
3 342 355 343
3 343 355 344
3 332 344 345
3 345 358 335
3 335 358 346
3 346 337 324
3 337 360 347
3 347 362 348
3 348 362 349
3 339 349 350
3 351 350 352
3 341 352 353
3 342 353 354
3 354 356 344
3 356 369 345
3 345 369 357
3 358 357 359
3 359 360 337
3 360 372 361
3 361 363 362
3 363 364 349
3 364 376 350
3 350 376 365
3 352 365 366
3 366 367 354
3 367 380 356
3 356 380 368
3 369 368 370
3 370 371 359
3 371 372 360
3 372 385 373
3 373 387 363
3 363 387 374
3 364 374 375
3 376 375 377
3 365 377 378
3 378 379 367
3 379 381 380
3 381 382 368
3 382 383 370
3 383 384 371
3 384 385 372
3 385 396 386
3 386 388 387
3 388 400 374
3 374 400 389
3 375 389 390
3 390 403 378
3 378 403 391
3 379 391 392
3 381 392 393
3 382 393 394
3 394 395 384
3 395 396 385
3 396 407 397
3 386 397 398
3 388 398 399
3 400 399 401
3 389 401 402
3 402 413 403
3 403 413 404
3 404 405 392
3 405 416 393
3 393 416 406
3 406 418 395
3 395 418 407
3 408 409 397
3 409 410 398
3 410 411 399
3 411 423 401
3 401 423 412
3 412 426 413
3 413 426 414
3 404 414 415
3 415 430 416
3 416 430 417
3 417 419 418
3 419 408 407
3 408 434 420
3 409 420 421
3 410 421 422
3 422 424 423
3 424 425 412
3 425 427 426
3 427 428 414
3 428 429 415
3 429 431 430
3 431 432 417
3 432 433 419
3 433 434 408
3 434 442 435
3 435 445 421
3 421 445 436
3 436 447 424
3 424 447 437
3 437 438 427
3 438 451 428
3 428 451 439
3 439 440 431
3 440 454 432
3 432 454 441
3 441 442 434
3 442 455 443
3 435 443 444
3 445 444 446
3 446 448 447
3 448 449 437
3 449 450 438
3 450 461 451
3 451 461 452
3 452 464 440
3 440 464 453
3 453 467 441
3 441 467 455
3 455 469 456
3 443 456 457
3 457 458 446
3 458 472 448
3 448 472 459
3 449 459 460
3 460 462 461
3 462 463 452
3 463 478 464
3 464 478 465
3 453 465 466
3 466 469 455
3 468 481 456
3 456 481 470
3 457 470 471
3 471 473 472
3 473 474 459
3 474 475 460
3 475 486 462
3 462 486 476
3 463 476 477
3 477 489 465
3 465 489 479
3 466 479 468
3 480 482 481
3 482 492 470
3 470 492 483
3 471 483 484
3 484 496 474
3 474 496 485
3 485 487 486
3 487 499 476
3 476 499 488
3 488 502 489
3 489 502 490
3 479 490 480
3 480 505 491
3 491 493 492
3 493 494 483
3 494 495 484
3 495 497 496
3 497 510 485
3 485 510 498
3 498 512 499
3 499 512 500
3 488 500 501
3 501 503 490
3 503 505 480
3 504 517 491
3 491 517 506
3 493 506 507
3 507 508 495
3 508 521 497
3 497 521 509
3 509 523 498
3 498 523 511
3 512 511 513
3 513 514 501
3 514 515 503
3 515 504 505
3 504 527 516
3 517 516 518
3 506 518 519
3 507 519 520
3 520 532 521
3 521 532 522
3 522 535 523
3 523 535 524
3 511 524 525
3 525 538 514
3 514 538 526
3 526 527 504
3 527 540 528
3 528 543 518
3 518 543 529
3 519 529 530
3 520 530 531
3 532 531 533
3 522 533 534
3 534 536 524
3 536 537 525
3 537 551 538
3 538 551 539
3 526 539 540
3 541 542 528
3 542 544 543
3 544 545 529
3 545 546 530
3 546 547 531
3 547 548 533
3 548 549 534
3 549 560 536
3 536 560 550
3 550 562 551
3 551 562 552
3 539 552 541
3 541 564 553
3 542 553 554
3 544 554 555
3 545 555 556
3 556 557 547
3 557 570 548
3 548 570 558
3 549 558 559
3 560 559 561
3 561 563 562
3 563 575 552
3 552 575 564
3 564 576 565
3 565 566 554
3 566 577 555
3 555 577 567
3 556 567 568
3 557 568 569
3 569 571 558
3 571 572 559
3 572 573 561
3 573 578 563
3 563 578 574
3 575 574 576
3 3 5 565
3 5 7 566
3 7 9 577
3 577 9 10
3 10 12 568
3 568 12 14
3 14 15 571
3 15 17 572
3 572 17 19
3 19 21 578
3 578 21 23
3 574 23 3
